<?xml version="1.0" encoding="utf-8"?>
<!-- Generator: Adobe Illustrator 24.0.3, SVG Export Plug-In . SVG Version: 6.00 Build 0)  -->
<svg version="1.1" id="Layer_1" xmlns="http://www.w3.org/2000/svg" xmlns:xlink="http://www.w3.org/1999/xlink" x="0px" y="0px"
	 viewBox="0 0 53.7 53" style="enable-background:new 0 0 53.7 53;" xml:space="preserve">
<path d="M4.1,24v20.6c0,0.5,0.5,1,1,1h20.6c0.5,0,1-0.5,1-1v-1.1l-6-4.4c-0.6-0.5-1.1-1.2-1.2-2c-0.1-0.8,0.1-1.6,0.5-2.2l2.6-3.5
	l-1.6-2.9h-3.6c-1.6,0-3-1.3-3-3V23H5.1C4.6,23,4.1,23.4,4.1,24z M15.4,30.2c2.2,0,4,1.8,4,4s-1.8,4-4,4c-2.2,0-4-1.8-4-4
	S13.2,30.2,15.4,30.2z"/>
<path d="M51.4,31.8l-16.2-12c-0.4-0.3-1-0.2-1.4,0.2l-12,16.2c-0.3,0.4-0.2,1,0.2,1.4l16.2,12c0.2,0.1,0.4,0.2,0.6,0.2
	c0.3,0,0.6-0.1,0.8-0.4l12-16.2C51.9,32.7,51.8,32.1,51.4,31.8z M39.1,41.3c0,0.4-0.3,0.6-0.6,0.8c-0.1,0-0.3,0.1-0.4,0.1
	c-0.2,0-0.4-0.1-0.6-0.2l-8.1-6C29.1,35.7,29,35.4,29,35c0-0.3,0.3-0.6,0.6-0.8l9.3-4c0.3-0.1,0.7-0.1,1,0.1
	c0.3,0.2,0.4,0.5,0.4,0.9L39.1,41.3z"/>
<path d="M17.6,3.9c-0.6,0-1,0.5-1,1v20.6c0,0.5,0.4,1,1,1h8.8l5.8-7.8c0.6-0.8,1.5-1.2,2.4-1.2c0.7,0,1.3,0.2,1.8,0.6l2.9,2.1V4.9
	c0-0.5-0.5-1-1-1H17.6z M34,16.7c-0.1,0.4-0.4,0.6-0.8,0.7l-3,0.4l-1.3,2.8c-0.2,0.3-0.5,0.6-0.9,0.6s-0.7-0.2-0.9-0.6l-1.4-2.8
	l-3-0.4c-0.4-0.1-0.7-0.3-0.8-0.7c-0.1-0.4,0-0.8,0.2-1l2.2-2.2l-0.5-3c-0.1-0.4,0.1-0.8,0.4-1c0.3-0.2,0.7-0.2,1.1-0.1l2.7,1.4
	l2.7-1.4c0.3-0.2,0.8-0.2,1.1,0.1c0.3,0.2,0.5,0.6,0.4,1l-0.5,3l2.2,2.2C34,15.9,34.1,16.3,34,16.7z"/>
</svg>
