<?xml version="1.0" encoding="utf-8"?>
<!-- Generator: Adobe Illustrator 24.0.3, SVG Export Plug-In . SVG Version: 6.00 Build 0)  -->
<svg version="1.1" id="Layer_1" xmlns="http://www.w3.org/2000/svg" xmlns:xlink="http://www.w3.org/1999/xlink" x="0px" y="0px"
	 viewBox="0 0 648 679" style="enable-background:new 0 0 648 679;" xml:space="preserve">
<style type="text/css">
	.st0{fill-rule:evenodd;clip-rule:evenodd;}
</style>
<g>
	<path class="st0" d="M602.9,364.4c6,0,10.8,4.9,10.8,10.9v26.4c0,6-4.9,10.9-10.8,10.9h-76.1v140.3c0,41.8-34.2,76-76,76h-265
		c-41.8,0-76-34.2-76-76V412.5H33.8c-6,0-10.9-4.9-10.9-10.9v-26.4c0-6,4.9-10.9,10.9-10.9H602.9L602.9,364.4z M291.5,187.8
		c14.6-7.6,26.2,14.6,11.6,22.2c-10.2,5.3-13.2,10.7-12.7,16c2,21.6,31.6,40.4,23.1,72.1c-3.9,14.3-15.5,25.8-36.6,35.2
		c-15.1,6.7-25.2-16.3-10.1-22.9c13.5-6,20.6-12.1,22.4-18.8c4.3-16-21.7-40.5-23.8-63.2C264,213.2,270.1,199,291.5,187.8
		L291.5,187.8z M365.4,187.8c14.6-7.6,26.2,14.6,11.6,22.2c-10.2,5.3-13.2,10.7-12.7,16c2,21.6,31.6,40.4,23.1,72.1
		c-3.8,14.3-15.5,25.8-36.6,35.2c-15.1,6.7-25.2-16.3-10.1-22.9c13.5-6,20.6-12.1,22.4-18.8c4.3-16-21.7-40.5-23.8-63.2
		C337.9,213.2,344,199,365.4,187.8L365.4,187.8z M439.2,187.8c14.6-7.6,26.2,14.6,11.6,22.2c-10.2,5.3-13.2,10.7-12.7,16
		c2,21.6,31.6,40.4,23.1,72.1c-3.8,14.3-15.5,25.8-36.6,35.2c-15.1,6.7-25.2-16.3-10.1-22.9c13.5-6,20.6-12.1,22.4-18.8
		c4.3-16-21.7-40.5-23.8-63.2C411.7,213.2,417.8,199,439.2,187.8L439.2,187.8z M513.1,187.8c14.6-7.6,26.2,14.6,11.6,22.2
		c-10.2,5.3-13.2,10.7-12.7,16c2,21.6,31.6,40.4,23.1,72.1c-3.8,14.3-15.5,25.8-36.6,35.2c-15.1,6.7-25.2-16.3-10.1-22.9
		c13.5-6,20.6-12.1,22.4-18.8c4.3-16-21.7-40.5-23.8-63.2C485.6,213.2,491.7,199,513.1,187.8L513.1,187.8z M178.9,146.7l39.2-39.2
		l-21.9-21.9c-8.5-8.4-22.2-8.4-30.7,0l-8.5,8.5c-8.4,8.4-8.4,22.2,0,30.7L178.9,146.7L178.9,146.7z M174.8,177.3l37-37l37-37
		c44.6-44.6,90.2-68.8,155.9-64.9L257.2,185.7L109.8,333.1C106,267.5,130.2,221.9,174.8,177.3L174.8,177.3z"/>
</g>
</svg>
