<?xml version="1.0" encoding="utf-8"?>
<!-- Generator: Adobe Illustrator 24.0.3, SVG Export Plug-In . SVG Version: 6.00 Build 0)  -->
<svg version="1.1" id="Layer_1" xmlns="http://www.w3.org/2000/svg" xmlns:xlink="http://www.w3.org/1999/xlink" x="0px" y="0px"
	 viewBox="0 0 512 427" style="enable-background:new 0 0 512 427;" xml:space="preserve">
<title>Cook pot</title>
<path d="M231.8,26c-3.3,0-6,2.7-6,6s2.7,6,6,6l0,0h49.1c3.3,0,6-2.7,6-6s-2.7-6-6-6H231.8z"/>
<path d="M218.2,271.7c1.8,1.8,4.2,2.8,6.8,2.8h0c5.3,0,9.6-4.3,9.6-9.6v-91.8H145v154.5c0,5.3,4.3,9.6,9.6,9.6
	c5.3,0,9.6-4.3,9.6-9.6c0,0,0,0,0,0V207.8c0-14.1,11.5-25.6,25.6-25.6c14.1,0,25.6,11.5,25.6,25.6v57.1
	C215.4,267.4,216.4,269.9,218.2,271.7z"/>
<path d="M478,173.1h-7.4v24h7.4c6.6,0,12-5.4,12-12C490,178.4,484.6,173.1,478,173.1z"/>
<rect x="53.4" y="173.1" width="17.1" height="24"/>
<path d="M246.6,264.9c0,11.9-9.7,21.6-21.6,21.6h0c-11.9,0-21.6-9.7-21.6-21.6c0,0,0,0,0,0v-57.1c0-7.5-6.1-13.6-13.6-13.6
	c-7.5,0-13.6,6.1-13.6,13.6c0,0,0,0,0,0v119.7c0,11.9-9.7,21.6-21.6,21.6c-11.9,0-21.6-9.7-21.6-21.6c0,0,0,0,0,0V173.1H82.5V376
	c0,7.7,6.3,14,14,14h319.8c7.7,0,14-6.3,14-14V173.1H246.6V264.9z"/>
<rect x="442.2" y="173.1" width="16.4" height="24"/>
<path d="M22,185c0,6.6,5.4,12,12,12h7.4v-24H34C27.4,173.1,22,178.4,22,185z"/>
<path d="M458.6,134.4c0-3.3-2.7-6-6-6h-39C410.5,98,385,75,354.5,74.9H158.2c-30.4,0.1-55.9,23.1-59.1,53.4h-8.5l-0.1-0.2l0.1,0.2
	H60.1c-3.3,0-6,2.7-6,6s2.7,6,6,6l0,0h392.5C455.9,140.4,458.6,137.7,458.6,134.4z"/>
</svg>
