<?xml version="1.0" encoding="utf-8"?>
<!-- Generator: Adobe Illustrator 24.0.3, SVG Export Plug-In . SVG Version: 6.00 Build 0)  -->
<svg version="1.1" id="Layer_1" xmlns="http://www.w3.org/2000/svg" xmlns:xlink="http://www.w3.org/1999/xlink" x="0px" y="0px"
	 viewBox="0 0 134.2 137.1" style="enable-background:new 0 0 134.2 137.1;" xml:space="preserve">
<title>Miscellaneous 42 solid</title>
<path d="M131.5,20.1c0-8.8-9-16-20-16s-20,7.2-20,16c0,5.6,3.6,10.5,9,13.4v1.7c-3.6-1.9-7.7-2.5-11.7-1.7
	c-6.9,1.6-11.3,6.7-13.7,10.7c-3.6,5.9-6.4,8.2-13.4,6.2c-2.6-0.9-5.1-2-7.6-3.2c-8.8-4.1-19.9-9.1-27-5.8c-1.3,0.6-2.5,1.5-3.4,2.7
	c-1.6,0.1-3.1,0.4-4.6,1.1c-0.9,0.4-1.5,1.1-1.7,2c-0.2,0.9,0,1.9,0.5,2.7l12.9,17.4l-18.1-5.1c-0.9-0.3-1.9-0.1-2.7,0.4
	c-0.8,0.5-1.3,1.3-1.4,2.2c-1.4,8.3,7.4,13.2,7.8,13.4l0.2,0.1c6.6,2.8,19.2,8.1,19.9,8.4c0.4,0.2,0.7,0.3,1,0.5L34.3,92l-0.2,0.4
	c-0.1,0.2-0.3,0.4-0.5,0.5l-1.8,0.6c-0.3,0-0.7,0-1-0.1c-7.7-4-15-2.8-21.3,3.6c-4.8,4.9-7,12.9-5.6,20.3
	c1.2,6.3,4.8,11.1,10.2,13.4c2.2,1,4.6,1.5,7,1.5c2,0,4-0.4,5.9-1.2c4.8-1.9,8.6-6.1,11-12.1l9.2-20.8l0.2,0.6
	c4.8,11.4,8.4,18.8,10.7,22c3.1,4.2,7.9,6.9,13.2,7.4c0.6,0,1.2,0.1,1.7,0.1c4.6,0,9-1.7,12.3-4.9c6.7-6.3,6.3-18.8,1.8-26
	s-14.8-12.6-22.6-8.6c-1,0.5-1.9,1.2-2.8,1.9c-3.3-6.9-8.5-17.4-11.1-20l-0.3-0.5c4.4-0.7,8.6-2.2,12.5-4.4
	c4.2-2.1,7.9-3.8,11.3-2.4c0.7,0.3,1.2,0.7,1.3,1c0.4,1.3-1.6,4.3-3,6.5c-2.2,3.4-4.3,6.6-3.2,9.5c0.7,1.7,2.2,2.9,3.9,3.3
	c1.1,0.3,2.3,0.5,3.5,0.5c1.8,0,3.5-0.3,5.2-0.7c1.1-0.3,1.7-1.3,1.5-2.4s-1.3-1.7-2.4-1.5c-2.1,0.6-4.4,0.7-6.6,0.3
	c-0.7-0.2-1.2-0.5-1.3-0.8c-0.4-1,1.6-4,2.8-5.9c2.2-3.3,4.4-6.8,3.4-9.9c-0.6-1.7-1.9-3-3.6-3.5c-5.3-2.2-10.7,0.5-14.6,2.5
	c-4.4,2.2-8,3.7-12.2,4.1c-0.4,0-0.9,0.1-1.3,0.1L36,50.6c-1.8-2.5-4.2-4.5-7-5.6c5.5-2.4,15.9,2.3,23.5,5.8
	c2.6,1.3,5.4,2.4,8.1,3.4c1.8,0.6,3.6,0.8,5.5,0.9c5.7,0,9.2-3.5,12.4-8.8c2-3.4,5.6-7.6,11.2-8.9c4-0.9,8.1,0.8,10.8,2.3v3.9
	c-5.4,2.6-9,7-9,12.1c0,8,9,14.5,20,14.5s20-6.5,20-14.5c0-5-3.6-9.5-9-12.1V33.4C127.9,30.6,131.5,25.7,131.5,20.1z M29.5,116.1
	c-1.8,4.3-5.4,7-9,7c-1.1,0-2.2-0.3-3.2-0.8c-4.4-2.2-6.1-8.6-3.8-14.2c1.8-4.3,5.4-7,8.9-7c1.1,0,2.2,0.3,3.2,0.8
	C30.1,104.1,31.8,110.5,29.5,116.1z M50.4,77c2.1,3.6,5.1,9.5,8.4,16.5c0.7,1.5,2.5,2.2,4,1.5c0.3-0.1,0.5-0.3,0.7-0.5l0.1-0.1
	c0.9-0.8,1.8-1.6,2.9-2.2c5.8-3,13.8,1.3,17.3,7s4,16.2-1.1,21c-2.9,2.8-6.9,4.1-10.9,3.8c-4.1-0.4-7.9-2.5-10.3-5.8
	c-1.5-2-4.4-7.3-10.2-21.2l-0.3-0.7c-0.2-0.4-4.1-9.7-12.8-13.5c-0.8-0.3-18.2-7.7-19.8-8.4c-0.7-0.4-5.9-3.5-5.7-8.3L50.4,77z
	 M111.5,13.1c5,0,9,3.1,9,7s-4,7-9,7s-9-3.1-9-7S106.5,13.1,111.5,13.1z M104.5,46.8V43c4.6,1.4,9.4,1.4,14,0v3.7
	C114,48.5,109,48.5,104.5,46.8z M118.5,51v3.8c-4.5,1.7-9.5,1.7-14,0V51C109.1,52.5,114,52.5,118.5,51z M104.5,38.8v-3.7
	c4.6,1.4,9.4,1.4,14,0v3.7C114,40.5,109,40.5,104.5,38.8z M122.5,56.1V48c3.1,1.9,5,4.6,5,7.6c0,5.8-7.2,10.5-16,10.5
	s-16-4.7-16-10.5c0-3,1.9-5.7,5-7.6v8.1c0,0.8,0.4,1.5,1.1,1.8c6.3,2.9,13.5,2.9,19.7,0C122.1,57.6,122.5,56.9,122.5,56.1z"/>
<ellipse cx="45.5" cy="81.1" rx="2" ry="2"/>
<path d="M73.8,120.1c1.6,0,3.2-0.6,4.4-1.6c3.8-3.1,4.4-9.9,1.3-15.1c-2.1-3.4-5.2-5.3-8.3-5.3c-1.6,0-3.2,0.6-4.4,1.6
	c-3.8,3.1-4.4,9.9-1.3,15.1C67.6,118.2,70.8,120.1,73.8,120.1z M69.3,102.8c0.5-0.4,1.2-0.7,1.9-0.7c1.7,0,3.6,1.3,4.8,3.4
	c2.3,3.8,1.6,8.3-0.4,9.9c-0.5,0.4-1.2,0.7-1.9,0.7c-1.7,0-3.6-1.3-4.8-3.4C66.7,108.9,67.3,104.4,69.3,102.8z"/>
<path d="M109.5,77.1c-6.6,0-12,5.4-12,12s5.4,12,12,12s12-5.4,12-12S116.1,77.1,109.5,77.1z M109.5,91.1c-1.1,0-2-0.9-2-2s0.9-2,2-2
	s2,0.9,2,2S110.6,91.1,109.5,91.1z"/>
<path d="M57.5,39.1c6.6,0,12-5.4,12-12s-5.4-12-12-12s-12,5.4-12,12S50.9,39.1,57.5,39.1z M57.5,25.1c1.1,0,2,0.9,2,2s-0.9,2-2,2
	s-2-0.9-2-2S56.4,25.1,57.5,25.1z"/>
<path d="M5.3,18.3l4.5,0.5l2.2,4.2c0.3,0.7,1,1.1,1.8,1.1h0.1c0.8,0,1.5-0.5,1.8-1.2l1.9-4.3l4.5-0.8c1.1-0.2,1.8-1.3,1.6-2.3
	c-0.1-0.4-0.3-0.8-0.6-1.1l-3.4-3.2l0.6-4.8c0.2-1.1-0.6-2.1-1.7-2.3c-0.4-0.1-0.9,0-1.3,0.3l-3.9,2.4l-4.1-2
	c-1-0.5-2.2-0.1-2.7,0.9C6.2,6,6.2,6.4,6.3,6.9l0.9,4.7L4,15c-0.7,0.8-0.7,2.1,0.1,2.8C4.5,18.1,4.9,18.3,5.3,18.3L5.3,18.3z"/>
<path d="M104.6,119.8c0.3,0.7,0.9,1.2,1.7,1.3l3.8,0.4l1.8,3.5c0.3,0.7,1,1.1,1.8,1.1h0.1c0.8,0,1.5-0.5,1.8-1.2l1.6-3.7l3.8-0.7
	c1.1-0.2,1.8-1.3,1.6-2.3c-0.1-0.4-0.3-0.8-0.6-1.1l-2.9-2.7l0.5-4c0.2-1.1-0.6-2.1-1.7-2.3c-0.4-0.1-0.9,0-1.3,0.3l-3.3,2l-3.4-1.7
	c-1-0.5-2.2-0.1-2.7,0.9c-0.2,0.4-0.3,0.9-0.2,1.3l0.8,4l-2.7,2.9C104.6,118.3,104.4,119.1,104.6,119.8z"/>
</svg>
