<?xml version="1.0" encoding="utf-8"?>
<!-- Generator: Adobe Illustrator 24.0.3, SVG Export Plug-In . SVG Version: 6.00 Build 0)  -->
<svg version="1.1" id="Layer_1" xmlns="http://www.w3.org/2000/svg" xmlns:xlink="http://www.w3.org/1999/xlink" x="0px" y="0px"
	 viewBox="0 0 955.7 982.1" style="enable-background:new 0 0 955.7 982.1;" xml:space="preserve">
<g>
	<path d="M927.6,471.3c0,13.1-4.8,25.6-13.6,35.3l-97.8,115.5l-0.2,0.2c-0.9,1-1.9,2-2.9,3l-79.8,75.4c-18.1,17.1-39,30.2-62.3,39
		s-47.7,12.9-72.5,12.1l-138.7-4.3c-13.3-0.4-26.3,4-36.6,12.4l-42.4,34.7l-10.3-11l-10.3-11L197.1,597.7l-10.2-11l-10.2-11
		l57.3-57.6l0.2-0.2c0.8-0.8,1.6-1.5,2.5-2.2l0.1-0.1c6-5.2,13.1-10.2,21.2-14.8c44.2-25.4,97.3-29.3,145.7-10.7l86.9,33.4
		c11.7,3.3,23.8,4.9,36,4.9h103.3c16.5,0,32,6.4,43.6,17.5h-0.1c2.7,4.1,4.7,8.5,6,13.1c0.1,0.2,0.1,0.4,0.2,0.6
		c1.3,4.4,1.9,9,1.9,13.6c0,0.9,0,1.7-0.1,2.6c-0.3,5.7-1.6,11.3-3.7,16.5c-1,2.5-2.3,5-3.8,7.4l-0.7,1.2
		c-8.7,14.1-23.6,22.9-40.1,23.8c-0.6,0-1.2,0-1.8,0.1c-19.1,0.3-44.1,0.5-70.6,0.5h-3.8c-15.6,0-31.3-0.1-45.3-0.2
		c-15.6-0.1-29.2-0.2-38.8-0.3v0.2c-22.5-0.1-42.3-0.3-56-0.4l-0.2,30c27.6,0.2,79.6,0.6,129.3,0.6c3.8,0,7.5,0,11.2,0h3.8
		c2.2,0,4.3,0,6.5,0c23.6,0,46.4-0.1,63.2-0.4c1.7,0,3.3-0.1,5-0.3c26-1.6,49.4-15.6,63.2-37.9l0.7-1.2c7.9-12.7,12-27.3,12-42.3
		c0-4.7-0.4-9.3-1.2-13.9c-0.9-5.1-2.3-10.1-4.1-14.9c-1.8-4.7-4-9.2-6.7-13.5l36-20.6c1.5-0.8,2.8-1.9,4-3l52.2-55.6
		c1.3-1.3,2.5-2.6,3.8-3.8c14.1-14.2,28.6-28.9,52.1-34.1c5.5-1.2,11.1-1.8,16.6-1.8c22.9,0,36.2,9.3,49.2,23.3
		C922.6,445.2,927.6,457.9,927.6,471.3z"/>
	<path d="M377.1,834.7l-236.9-254c-1.1-1.2-2.6-1.8-4.1-1.8c-1.4,0-2.8,0.5-3.8,1.5L36,670.9c-2.3,2.2-2.4,5.7-0.3,8l236.9,254
		c1.4,1.5,3,1.8,3.9,1.8s2.5-0.1,4-1.5l96.3-90.5C379.1,840.5,379.2,836.9,377.1,834.7z M288.8,873.9c-13.5,0-24.6-11-24.6-24.6
		s11-24.6,24.6-24.6s24.6,11,24.6,24.6S302.4,873.9,288.8,873.9z"/>
	<path d="M729.8,328.5c0,59.9-49.6,108.6-110.9,109.3v35.7h-60v-35.6c-57.7-0.7-104.4-46.7-104.4-103.2h60
		c0,23.8,20.6,43.2,45.8,43.2h57.2c28.8,0,52.3-22.2,52.3-49.4c0-13-5.3-25.2-14.9-34.5c-9.9-9.6-23.2-14.8-37.3-14.8h-57.2
		c-61.9,0-112.3-49.1-112.3-109.4c0-29.4,11.8-57,33.3-77.7C502.2,72,529.7,60.8,559,60.4V26.2h60v34.3
		c57.7,0.7,104.5,46.7,104.5,103.1h-60c0-23.8-20.6-43.2-45.8-43.2h-57.2c-14.2,0-27.4,5.3-37.3,14.8c-9.6,9.3-14.9,21.5-14.9,34.5
		c0,27.2,23.4,49.4,52.3,49.4h57.2c29.8,0,57.8,11.2,79,31.7C718,271.5,729.8,299.1,729.8,328.5z"/>
</g>
</svg>
