<?xml version="1.0" encoding="utf-8"?>
<!-- Generator: Adobe Illustrator 24.0.3, SVG Export Plug-In . SVG Version: 6.00 Build 0)  -->
<svg version="1.1" xmlns="http://www.w3.org/2000/svg" xmlns:xlink="http://www.w3.org/1999/xlink" x="0px" y="0px"
	 viewBox="0 0 100 102.7" style="enable-background:new 0 0 100 102.7;" xml:space="preserve">
<g id="Layer_2">
</g>
<g id="Layer_1">
	<g>
		<path d="M5273.1,2400.1v-2c0-2.8-5-4-9.7-4s-9.7,1.3-9.7,4v2c0,1.8,0.7,3.6,2,4.9l5,4.9c0.3,0.3,0.4,0.6,0.4,1v6.4
			c0,0.4,0.2,0.7,0.6,0.8l2.9,0.9c0.5,0.1,1-0.2,1-0.8v-7.2c0-0.4,0.2-0.7,0.4-1l5.1-5C5272.4,2403.7,5273.1,2401.9,5273.1,2400.1z
			 M5263.4,2400c-4.8,0-7.4-1.3-7.5-1.8l0,0c0.1-0.5,2.7-1.8,7.5-1.8s7.3,1.3,7.5,1.8C5270.7,2398.7,5268.2,2400,5263.4,2400z"/>
		<path d="M5268.4,2410.3c-0.6,0-1,0.4-1,1s0.4,1,1,1h4.3c0.6,0,1-0.4,1-1s-0.4-1-1-1H5268.4z"/>
		<path d="M5272.7,2413.7h-4.3c-0.6,0-1,0.4-1,1s0.4,1,1,1h4.3c0.6,0,1-0.4,1-1C5273.7,2414.1,5273.3,2413.7,5272.7,2413.7z"/>
		<path d="M5272.7,2417h-4.3c-0.6,0-1,0.4-1,1s0.4,1,1,1h4.3c0.6,0,1-0.4,1-1C5273.7,2417.5,5273.3,2417,5272.7,2417z"/>
	</g>
	<g>
		<path d="M50,52.3c10,0,18.1-8.1,18.1-18.1s-8.1-18-18.1-18s-18.1,8.1-18.1,18.1S40,52.3,50,52.3z M51.3,35.8h-2.6
			c-2.9,0-5.3-2.4-5.3-5.3c0-2.8,2.2-5.1,5-5.2v-3.1h3.1v3.1c2.8,0.1,5,2.4,5,5.2h-3.1c0-1.2-1-2.2-2.2-2.2h-2.6
			c-1.2,0-2.2,1-2.2,2.2s1,2.2,2.2,2.2h2.6c2.9,0,5.3,2.4,5.3,5.3c0,2.8-2.2,5.1-5,5.2v3.1h-3.1v-3.1c-2.8-0.1-5-2.4-5-5.2h3.1
			c0,1.2,1,2.2,2.2,2.2h2.6c1.2,0,2.2-1,2.2-2.2S52.5,35.8,51.3,35.8z"/>
		<path d="M50,12.8c1,0,1.8-0.8,1.8-1.8V4.3c0-1-0.8-1.8-1.8-1.8s-1.8,0.8-1.8,1.8V11C48.2,12,49,12.8,50,12.8z"/>
		<path d="M41.3,15.2c1,0,1.8-0.8,1.8-1.8V6.6c0-1-0.8-1.8-1.8-1.8s-1.8,0.8-1.8,1.8v6.7C39.5,14.4,40.4,15.2,41.3,15.2z"/>
		<path d="M58.6,15.2c1,0,1.8-0.8,1.8-1.8V6.6c0-1-0.8-1.8-1.8-1.8s-1.8,0.8-1.8,1.8v6.7C56.8,14.4,57.6,15.2,58.6,15.2z"/>
		<path d="M15.4,72.5v23.2c0,1,0.8,1.8,1.8,1.8h65.6c1,0,1.8-0.8,1.8-1.8V72.5H15.4z"/>
		<path d="M78.5,39.8c-0.2-0.8-0.9-1.4-1.8-1.4h-5.4c-0.9,4.9-3.6,9.3-7.3,12.4h6.8c0.7,0,1.2,0.5,1.3,1.2l0.4,3
			c0.1,0.8-0.5,1.5-1.3,1.5H28.8c-0.8,0-1.4-0.7-1.3-1.5l0.4-3c0.1-0.7,0.6-1.2,1.3-1.2H36c-3.7-3.1-6.3-7.5-7.3-12.4h-5.4
			c-0.9,0-1.6,0.6-1.8,1.4l-5.8,29.1h68.7L78.5,39.8z"/>
	</g>
</g>
</svg>
