<?xml version="1.0" encoding="utf-8"?>
<!-- Generator: Adobe Illustrator 24.0.3, SVG Export Plug-In . SVG Version: 6.00 Build 0)  -->
<svg version="1.1" id="Layer_1" xmlns="http://www.w3.org/2000/svg" xmlns:xlink="http://www.w3.org/1999/xlink" x="0px" y="0px"
	 viewBox="0 0 788 871" style="enable-background:new 0 0 788 871;" xml:space="preserve">
<style type="text/css">
	.st0{fill-rule:evenodd;clip-rule:evenodd;}
	.st1{fill-rule:evenodd;clip-rule:evenodd;stroke:#000000;stroke-width:0.5;stroke-miterlimit:10;}
</style>
<g>
	<path class="st0" d="M638,15c5-6,13-8,19-4l9,6c5,5,6,14,2,20c-83,112-166,223-248,335l-63,54l33-76C473,238,555,127,638,15z
		 M620,95l-23-18l3-4l23,17L620,95z M379,390l6,5c10-9,20-18,30-26c2-3,13-20,8-24c-1-1-5,1-9,4c2-5,2-9,0-10c-5-4-17,11-20,15
		C389,366,384,378,379,390z"/>
	<path class="st1" d="M199,203c72,0,143-1,215-1h76l-7,10h-70c-67,0-135,0-202,0c-16,64-34,137-55,222c-24,100-54,218-89,362
		c109,0,219,0,329,0s221,0,331,0c-27-144-50-263-69-363c-16-85-30-158-42-222h-68l7-9l73-1c14,66,30,143,48,232
		c22,106,48,233,80,389c-121,0-241,0-361,0c-119,0-239,0-358,0c41-155,74-282,102-388C162,345,182,269,199,203z M321,524
		c-59-58-87,29-126,68C253,631,340,577,321,524z M314,403c12,41,24,84,37,131c15,51,31,107,48,166c0,2,0,3-1,4c-4,1-8,2-12,4
		c-1,0-3-1-3-2c-16-57-30-110-43-158c-13-46-24-88-35-127C309,416,312,409,314,403z M600,363c9,6,4,22-11,36c-16,14-35,21-44,14
		c-8-7-3-23,13-37C573,363,592,357,600,363z M655,445c2,9-18,18-43,18c-26,0-47-8-48-18s18-18,43-18C631,427,653,435,655,445z
		 M626,540c-7,8-31,0-52-17s-31-37-23-45c8-7,30,0,51,16C623,511,634,532,626,540z M518,584c-13,0-24-21-25-47c-1-25,8-44,20-44
		s23,19,25,44S531,584,518,584z M405,540c-9-8,0-29,19-45c19-17,40-24,49-16c8,7,1,27-18,44C436,541,414,548,405,540z M365,445
		c1-10,21-17,46-17s45,7,45,17s-20,18-46,18C385,463,365,455,365,445z M434,365c7,3,13,6,20,11c17,14,24,31,17,37c-8,7-28,1-46-14
		c-4-4-8-8-11-12l11-10l1-1L434,365z M503,333c10,0,20,14,21,32c2,19-6,35-17,35s-21-15-21-34C485,347,493,333,503,333z M507,407
		c25,0,46,17,48,38c2,22-17,40-43,40s-47-18-48-40C464,424,483,407,507,407z M375,288c5,3-1,14-13,23c-13,9-27,13-32,9
		c-5-5,1-15,14-24C356,287,370,284,375,288z M382,350c-4,0-9,1-13,1c-18,0-31-5-31-11c1-7,15-12,32-12c10,0,18,2,24,4l-10,13l-1,1
		L382,350z M360,399c-7,0-17-5-25-12c-12-10-16-22-10-27c7-4,21,0,32,10c5,4,8,8,11,12L360,399z M291,423c-9,0-14-12-12-28
		c2-14,11-26,19-26s13,12,11,26C307,410,299,423,291,423z M220,397c-5-4,3-17,18-27c14-10,29-14,34-9c5,4-2,16-16,26
		C241,398,225,402,220,397z M203,340c1-6,16-11,33-11s30,5,29,11s-16,11-34,11C214,351,201,346,203,340z M242,288c6-4,19,0,29,8
		c10,9,14,20,7,24c-6,4-19,0-29-9S236,292,242,288z M311,268c7,0,12,9,11,21c-2,12-9,23-17,23s-12-11-10-23C296,277,304,268,311,268
		z M305,316c16,0,29,10,27,24c-1,13-16,24-34,24c-17,0-30-11-28-24C273,327,288,316,305,316z"/>
</g>
</svg>
