<?xml version="1.0" encoding="utf-8"?>
<!-- Generator: Adobe Illustrator 24.0.3, SVG Export Plug-In . SVG Version: 6.00 Build 0)  -->
<svg version="1.1" id="Layer_1" xmlns="http://www.w3.org/2000/svg" xmlns:xlink="http://www.w3.org/1999/xlink" x="0px" y="0px"
	 viewBox="0 0 94 93.3" style="enable-background:new 0 0 94 93.3;" xml:space="preserve">
<g>
	<path d="M8.2,76.4c-3.6-0.9-3.9-2.6-4.7-1.6c-0.3,0.3-0.2,0.8,0.1,1.1c5.1,4,12.5,2,23.7,1.9c0.4,0,0.7-0.4,0.7-0.8
		c-0.1-1.3-1.9-0.5-4-0.6c0.4-1.1-4.9-8.4-2.9-21.1c1-6.7,4.1-13,8.5-18.1c0.7,2.3,1.3,4.7,1.5,7.2c0.7,6.9-0.7,14.1-4,20.3
		c-3.2-0.9-2.1-3.1-3.5-2.7c-1.5,0.4,0.3,4,4.2,4.4c4.4,0.5,7.3-2.2,11.4,0.3c1,0.6,1.8,1.1,3,1.1c1.2,0,2.7-0.8,1.9-1.7
		c-0.3-0.3-0.8-0.3-1.1,0c0,0,0,0,0,0c-0.4-3.3-0.4-6.9-0.1-10.6c2.3,10.1,4.8,20.7,4.5,31.1c-4.3,0.3-4.5-2.2-5.5-1.2
		c-1.2,1.3,3,3,6.3,2.6h0c0,0,0,0,0,0c3-0.4,5.4-1.8,8.2-2.2c5.5-0.8,7.2,2.6,8.1,1.2c0.2-0.4,0.1-0.8-0.3-1
		c-1.3-0.8-2.8-1.3-4.4-1.6c-0.7-3.9-0.8-7.9-0.2-11.8c1.1-6.9,4.3-13.5,9-18.6c4.4-4.7-0.4-8.8-7.3-1.9c0.8-4.3,1.8-8.5,3.1-12.7
		C74.8,49.8,77.5,65,72.1,77.9c0,0.1,0,0.2,0,0.2c-1.3,0-2.4-0.5-3.1-1.2c-0.3-0.3-0.7-0.4-1.1-0.1c-0.3,0.3-0.4,0.7-0.1,1.1
		C71.6,82.3,78,77,82,77.9c1.2,0.3,2.4,1.1,3.7,1.5c3.2,1,5.5-1.2,4.4-2.1c-0.3-0.2-0.8-0.2-1,0.2c-0.2,0.3-0.6,0.5-1,0.6
		c0-0.1,0-0.1,0-0.2c-4.6-21.1,6.3-49.2,4.2-53.4c-1.2-2.4-4.4-1.5-5.3,0.7c-1.1,2.8,1.1,5.8,0.2,8.1c-0.1,0.4-0.5,0.7-0.8,0.8
		c-0.2,0.1-0.3,0-0.3,0c-0.8-0.6-0.3-13.6-1.6-15.9c-1.4-2.3-5-1.9-4.5,2.6c0.8,6.8,2.5,12.6,1.1,11.5C80.2,31,79.4,18.9,78.3,17
		c-1.3-2.2-4.1-1.7-4.6,0.7c-0.3,1.4-0.1,1.5,3,15.3c-0.2,0-0.4,0.1-0.5,0.2l-3.5-11.4c-0.3-2.1-1.4-3.4-2.9-3.4
		c-1,0-1.9,0.7-2.3,1.7c-1.1,2.7,1.3,4.3,4.1,16.8c-1.6-1.4-3.5-2.7-5.2-3.4c-0.9-0.4-2-0.3-2.7,0.2c-0.5-0.3-1-0.4-1.4-0.3
		c-2.5,0.3-2.9,4-4.1,9.8c-0.4,1.9-0.8,3.9-1.3,5.9c-0.1,0-0.2,0-0.4,0c2.4-15.1,2.6-14.9,2.2-16.2c-0.3-1.2-1.3-2-2.3-2
		c-0.9,0-1.8,0.6-2.3,1.5c-1.1,2.1-1.2,14.7-2.3,15.6c0.3-4.1,0.5-7.6,0.8-11.7c0.4-4.5-3.3-4.7-4.5-2.4c-0.5,0.9-0.5,2-0.5,2.8
		c-0.2,12.9-0.1,12.9-0.4,13.1c-0.2,0.2-0.6-1.1-0.9-1.8c-0.1-0.2-0.2-1.4-0.1-2.3c0.2-2.3,0.5-2.7-0.3-5c1.2-4.8,2.3-8.7,6.6-23.9
		c1.4-5.1-2.7-6.1-4.6-4c-1.4,1.7-1.1,3.9-0.9,5.3c0.2,1.2,0.3,2.6-0.2,3.6c-0.2,0.4-0.9,0.9-1.2,0.7c-0.7-0.6,1-13.7-0.1-16
		c-0.5-1-1.7-1.9-2.9-1.5c-2.3,0.7-1.8,3-1.5,15.3C39.7,20,40.2,7,39.2,4.7c-1.1-2.3-3.9-2.1-4.7,0.3c-0.4,1.2-0.3,1.1,1.3,15.7
		c0,0,0,0,0,0C33.2,8.3,33.2,5.8,30.9,5.4c-1.4-0.3-2.7,0.9-3,2.2c-0.6,2.5,1.3,4.5,2.8,16.3c-1.3-1.4-2.8-2.6-4.1-3.4
		c0.9-4.3-4-6.4-5.5-1l-3.1,11.8l-0.5-0.1c0,0-0.1,0-0.1-0.1c0.3-2,0.8-4,1.2-6c0.5-2.2,1-4.5,1.4-6.7c0.1-0.8,0.3-1.7,0-2.6
		c-0.7-2.4-3.4-2.8-4.6-0.5c-1.1,2.2-1.2,14.5-2.4,15.7c0.9-11.9,1.7-14.6-0.7-15.5c-1.2-0.4-2.5,0.3-3,1.3
		c-0.5,0.9-0.5,1.9-0.5,2.8c-0.1,4-0.1,8-0.2,12c0,0.3,0,0.9-0.2,1.1c0,0-0.1,0.1-0.3,0c-0.3-0.1-0.7-0.4-0.8-0.8
		c-0.4-1-0.2-2.2,0-3.6c0.2-1.3,0.6-3-0.1-4.5c-0.4-0.9-1.3-1.7-2.3-1.9c-0.8-0.2-1.6-0.1-2.2,0.4c-1.4,1.1-1.1,3-0.8,4.4
		C6.8,48.7,10.6,62.7,8.2,76.4z M70.9,38.4c1,0.9,2.5,0.1,2.3-1.2c-1-4.5-2.3-9-3.9-13.4c-0.4-1.1-0.8-2.1-0.4-3.1
		c0.2-0.4,0.5-0.7,0.9-0.8c1.1,0,1.3,1.7,1.3,2.1c0,0,0,0.1,0,0.1c3.7,11.7,3.2,11.9,4.3,12.4c0.6,0.3,1.1,0,1.6-0.1
		c0.8-0.2,1.3-0.9,1.1-1.7c-3-13.4-3.2-13.7-3-14.7c0.1-0.5,0.5-0.9,0.9-1c1-0.1,1.3,1.5,1.4,2.4c1.9,13.2,1.8,12.7,2.4,13.6
		c0.5,0.7,1.5,1,2.4,0.5c2-1.1,0.4-3-0.8-13c-0.3-2.7,1.1-2.6,1.7-1.6c0.5,0.8,0.4,0.8,1.1,14.1c0,0.6,0.1,1.6,0.9,2.2
		c0.5,0.3,1,0.4,1.6,0.2c0.8-0.2,1.5-0.9,1.8-1.7c1.1-2.8-1.1-5.8-0.2-8.1c0.7-1.7,3.2-1.7,2.7,1c-3.9,21.5-7.6,36.8-4.5,51.3
		c-1.2-0.3-2.7-1.3-4.2-1.6c-3.1-0.7-6,1-8.7,1.5c2.6-6.6,3.3-14,1.9-21c-3.1-15.8-13.3-19.7-11.3-21.8
		C65.5,33.9,69.6,37.2,70.9,38.4z M48.7,48.8c0.2-13.5,0.1-13.4,0.5-14.1c0.6-1.1,1.9-1.1,1.7,1.6c-1,13.6-1,12.7-0.7,13
		c0.8,0.9,2.2,0.4,2.8-0.6c0.4-0.7,0.5-1.6,0.6-2.2l1.2-11.5c0.3-3.1,1.9-2.8,2.3-1.5c0.2,0.9,0.1,0.9-2.2,15.6
		c-0.1,0.4,0,0.9,0.3,1.2c0.5,0.6,1.3,0.6,1.4,0.6c1.7,0.1,1.7-1.3,2.9-7.1c1.2-5.8,1.7-8.9,3.1-8.6c-0.3,0.7-0.2,1.7,0.8,3
		c-1.2,4.2-2.4,7.9-3.6,14.7c-0.2,1.2,1.3,1.9,2.1,1c4.9-5.5,9.2-4.6,5.7-0.8c-4.9,5.3-8.3,12.2-9.4,19.4c-0.6,3.9-0.6,7.9,0.1,11.9
		c-3.7-0.1-6.3,1.5-9.4,2.1c0.5-19.4-9.2-43.8-6.9-45.6c0.7-0.5,1.9,0.2,2.2,0.9c0.5,1.1,0.7,2.6,0.5,3.8c-0.2,1.2-0.2,2.3,0.4,3.8
		C46.2,51.5,48.7,52.3,48.7,48.8z M31.5,25.9c0.5-0.2,0.8-0.7,0.7-1.3c-0.5-4.7-1.4-9.4-2.6-14c-0.2-0.9-0.5-1.8-0.3-2.6
		c0.3-1.3,1.9-2.1,2.5,1l2.6,12.5c0.2,0.8,1.8,1.2,2.8-0.1c0.6-0.7-1.8-14.3-1.2-16c0.4-1.2,2-1.6,2.2,1.6
		c0.9,10.2-0.5,15.7,3.6,14.7c0.6-0.1,0.8,0.5,0.3-13.2c0-0.6,0-1.9,0.7-2.1c0.4-0.1,0.9,0.3,1.1,0.7C44.1,7.7,44,8.5,44,9.3
		l-0.4,12c-0.1,2.2,1.1,2.9,2.3,2.7c0.8-0.2,1.5-0.8,1.9-1.5c1.5-2.9-0.9-6.5,0.9-8.6c0.4-0.5,1.1-0.8,1.7-0.4
		c1.7,1.1-0.6,4-6.1,26.1c-2.2-1.3-4.9,0-4,4.4L42,51c-0.8,5.5-0.9,10.5-0.4,15.2c-2.3-0.7-2.5-2.9-9.3-1.6C31.1,64.8,30,65,28.9,65
		c3.2-6.3,4.6-13.6,3.9-20.7c-0.3-2.9-0.9-5.7-1.9-8.4c1.4-1.9,1.1-3.1,0.6-3.9c-0.6-0.7-1.5-1.1-2.6-0.9c-1.1-2.2-2.4-4.2-3.9-6.1
		c0-0.1-0.1-0.1-0.3-0.4c-0.4-0.5-0.8-1-1.3-2.7c0-0.2,0-0.3,0.1-0.4c0.5-0.6,1.8-0.1,2.5,0.3C27.5,22.9,29.9,26.5,31.5,25.9z
		 M24.6,27.2c1,1.4,1.9,2.9,2.7,4.4c-0.1,0.1-0.3,0.1-0.4,0.2c-1.5,0.8-2.9,1.8-4.1,3C23.4,32.3,24,29.7,24.6,27.2z M25,20
		c-1.2-0.3-2.1,0-2.8,0.7l0.2-0.8C23.4,16.5,25.4,17.7,25,20z M3.6,23.5c0.3-0.2,0.7-0.2,0.9-0.1c0.6,0.1,1.1,0.6,1.3,1.1
		c1,2.2-1.1,5.3,0.1,8.1c0.6,1.4,2.3,2.2,3.4,1.3c1.1-0.9,0.8-1.1,1-14.3c0-0.8,0-1.5,0.4-2.1c0.2-0.4,0.8-0.8,1.1-0.6
		c0.7,0.2,0.6,1.6,0.6,2.2c-1,13.7-1.2,13.4-0.5,13.5c0.2,0.2,0.5,0.2,0.8,0.2c0.8-0.1,1.6-0.8,1.9-1.3c0.4-0.7,0.5-1.5,0.6-2.2
		c1.3-12.6,1.3-12.6,1.6-13.2c0.6-1.1,1.6-0.8,1.9,0.2c0.2,0.6,0.1,1.3-0.1,2c-1.7,10.4-4.1,13.9-1.4,14.5l0.5,0.1
		c0.8,0.2,1.6-0.3,1.8-1.1l2.4-9.4c0,0.1,0,0.1,0,0.2c0.5,1.9,1.1,2.6,1.5,3.2c-0.9,3.2-1.6,6.6-2.2,9.9c-0.1,0.5,0.2,1.1,0.7,1.3
		c0.5,0.2,1.1,0.1,1.4-0.3c1.2-1.4,2.7-2.5,4.3-3.4c0.3-0.2,0.6-0.3,1-0.4c0.4-0.1,1.2-0.3,1.6,0.2c0.5,0.6-0.2,1.6-0.8,2.4
		c-0.1,0.1-0.2,0.3-0.3,0.4c-4.9,5.3-8.3,12.2-9.4,19.4c-1.9,12.3,3,21.3,3,21.4c-7.3,0.3-10.1,0.6-13.1,0.2
		c2.4-14-1.4-28.1-6.4-50.3C2.9,24.8,3,23.9,3.6,23.5z"/>
	<path d="M9.1,45.2c-0.4,0.2-0.5,0.7-0.3,1c1,1.7,2.9,2.8,4.9,2.9c0.1,0,0.1,0,0.2,0c1.9,0,3.8-1,4.9-2.6c0.2-0.3,0.1-0.8-0.2-1
		c-0.3-0.2-0.8-0.1-1,0.2c-0.8,1.2-2.3,2-3.8,1.9C10.4,47.5,10.4,44.4,9.1,45.2z"/>
	<path d="M47.6,62.4c-1.5,0.9,1.9,3.8,4.7,3.9c0.1,0,0.1,0,0.2,0c1.9,0,3.8-1,4.9-2.6c0.6-0.8-0.7-1.7-1.2-0.9
		c-0.8,1.2-2.3,2-3.8,1.9C48.9,64.7,48.9,61.6,47.6,62.4z"/>
	<path d="M76.3,47.4c-1.9,1.5,6.4,6.7,9.8,0.3c0.5-0.9-0.8-1.6-1.3-0.7c-0.7,1.3-2.1,2.2-3.6,2.3C77.7,49.6,77.5,46.5,76.3,47.4z"/>
	<path d="M45.4,27.6c-0.7-0.9-1.1,0.4-2.5,0.2c-0.6-0.1-1-0.4-1.3-0.8c-0.6-0.8-1.8,0.1-1.2,0.9C40.9,28.8,46.4,29,45.4,27.6z"/>
	<path d="M38.9,28.2c0.3-0.9-1.1-1.4-1.4-0.5c-0.5,1.5-2.3,2.1-3.6,1.3c-0.4-0.2-0.8-0.1-1,0.3C31.9,30.9,37.5,32.2,38.9,28.2z"/>
	<path d="M35.3,35c-0.2-0.4-0.7-0.5-1-0.2c-0.4,0.2-0.5,0.7-0.2,1c3.8,6.2,11.8,0.5,9.8-0.9c-1.2-0.8-1.4,2.3-4.8,2.2
		C37.6,37.1,36.1,36.2,35.3,35z"/>
	<path d="M9.4,38.1c1-1.4,2.9-1.7,4.2-0.6c0.8,0.6,1.7-0.5,1-1.1c-2-1.7-5-1.3-6.5,0.9c-0.2,0.3-0.1,0.8,0.2,1
		C8.7,38.5,9.1,38.4,9.4,38.1z"/>
	<path d="M17.8,36.8c0.5,0.1,1,0.4,1.2,0.8c0.1,0.2,0.4,0.4,0.6,0.4c0.1,0,0.3,0,0.4-0.1c0.4-0.2,0.5-0.7,0.2-1
		c-0.5-0.8-1.4-1.4-2.3-1.5c-1.4-0.2-3.6,1-2.6,2C16.1,38.1,16.5,36.6,17.8,36.8z"/>
	<path d="M48.9,57.6c1.8,0,2.8-1.9,2.2-3.4c-0.8-1.8-3.5-2.1-4.4-0.1c-0.3,0.7-0.3,1.4-0.1,2C46.9,57,47.9,57.6,48.9,57.6z
		 M48.6,54.3L48.6,54.3c1.1-0.3,1.7,1.2,0.7,1.7c-0.4,0.3-1.2,0-1.4-0.4C47.8,55.3,48.1,54.4,48.6,54.3z"/>
	<path d="M56.2,57c1.5-1.4,0.5-4.1-1.7-4c-2.3,0.1-3,2.8-1.4,4.1C53.5,57.5,55.4,57.8,56.2,57z M54.5,54.5c0.3,0,0.6,0.1,0.7,0.3
		c0.6,0.8-0.5,1.9-1.2,1.2C53.7,55.7,53.6,54.5,54.5,54.5z"/>
	<path d="M75.5,42.4c0.7,1,2.2,1.1,3,0.4v0c0.6-0.5,1-1.2,0.9-2c-0.3-2.7-4.3-2.6-4.4,0.1c-1.4,0.2-2.4,0.1-2.4,1
		C72.7,43,74.1,42.6,75.5,42.4z M77.2,40.4c0.4,0,0.6,0.3,0.7,0.6c0.1,0.7-0.8,1-1.2,0.6C76.5,41.3,76.5,40.4,77.2,40.4z"/>
	<path d="M85,40.5c0.8-0.3,1.1-0.4,1.8-0.7c0.4-0.1,0.6-0.6,0.5-1c-0.1-0.4-0.6-0.6-1-0.5c-0.8,0.3-1.1,0.4-1.9,0.7
		c-0.6-0.8-1.4-1.1-2.1-1c-1.6,0.1-2.8,1.7-2.1,3.4C81.4,44.3,85.2,43.1,85,40.5z M82.5,39.6c0.8,0,1.5,1.2,0.5,1.8
		c-0.6,0.4-1.2,0.2-1.4-0.4C81.4,40.3,81.9,39.6,82.5,39.6z"/>
</g>
</svg>
