<?xml version="1.0" encoding="utf-8"?>
<!-- Generator: Adobe Illustrator 24.0.3, SVG Export Plug-In . SVG Version: 6.00 Build 0)  -->
<svg version="1.1" id="Layer_1" xmlns="http://www.w3.org/2000/svg" xmlns:xlink="http://www.w3.org/1999/xlink" x="0px" y="0px"
	 viewBox="0 0 100 65.3" style="enable-background:new 0 0 100 65.3;" xml:space="preserve">
<path d="M94.5,15.2c0,0-0.4-0.1-0.7-0.2c-0.3-0.1-1.4-0.4-2-0.5c-0.6-0.1-1.6-0.4-2.1-0.5c-0.5-0.1-1.1-0.2-1.5-0.3
	c-0.4-0.1-1-0.1-1.5-0.4c-0.5-0.2-1-0.5-1.2-0.5c-0.2,0-3.6-1.4-3.9-1.5c-0.3-0.1-1.2-0.2-1.6-0.3c-0.4-0.1-1.1-0.4-1.3-0.4
	c-0.2-0.1-0.7-0.2-1.2-0.5c-0.6-0.3-1.2-0.6-1.4-0.6c-0.2,0-1.3-0.3-1.4-0.4c-0.1-0.1-0.6-0.2-1.1-0.4c-0.5-0.2-1.2-0.7-1.5-0.7
	C71.7,8.1,71.4,8,71.3,8s-3.6-0.1-3.9-0.1c-0.3,0-2.1,0.3-2.4,0.4c-0.3,0-3.2,0-3.2,0S56.1,8,56,8c-0.1,0-2.5,0-2.5,0
	s-1.9,0.1-2.1,0.1c-0.2,0-1.2,0.8-1.3,0.9c-0.2,0.1-0.8,2.3-0.8,2.3c0,0.1-1.4,3.5-1.4,3.5s-0.7,3-0.7,3.1c0,0.1-0.1,1.9-0.1,1.9
	v0.5l-0.1,0.4l-0.4-0.4l-1.4-0.8l-1.5-0.9L41.9,18l-2.3-0.9L37.9,16c0,0-1.5-1-2.1-1.1c-0.3-0.1-0.8-0.1-1.1,0
	c-0.2,0.1-0.7,0.2-0.9,0.4c-1,0.7-3.7,3.3-3.7,3.3l-5,4.4c0,0-4.3,2.8-5.5,4c-0.6,0.6-1.8,3-1.8,3l-6.3,13.1L9,47.8
	c0,0-1.6,2.6-2.5,3.3C5.7,51.7,3,52.7,3,52.6v9.2h16.1l0.6-0.5l1.9-0.8l2-1l1.5-0.8c0,0,2.1-0.7,2.2-0.7s1.5-0.8,1.6-0.9
	s1.4-0.6,1.4-0.6l1.6-1c0,0,1.4-0.2,1.6-0.3c0.1,0,2.3-0.3,2.4-0.3c0.1,0,2.3-0.6,2.3-0.6s3.1-1,4.1-1.2c0.8-0.1,3.3-0.3,3.4-0.3
	c0.1,0,0.7,0,0.9,0c0.7,0,2.8-0.1,2.8-0.1s1.9-0.4,2.5-0.3c0.4,0.1,1.2,0.6,1.4,0.6c0.2,0,0.5,0.1,0.6,0.1c0.4,0.1,1.4,0.4,1.6,0.4
	c0.2,0.1,1.3,0.5,1.5,0.6c0.2,0.1,1,0.2,1.2,0.2c0.2,0,0.5-0.1,0.8-0.2s0.4-0.7,0.4-1c0-0.4-0.3-0.9-0.5-1.4c0-0.1-0.1-0.1-0.1-0.2
	c0,0,0.2,0.5,0.3,0.7c0.2,0.2,0.6,0.7,0.9,0.8c0.2,0,0.5-0.2,0.6-0.2c0.1,0,0.3-0.4,0.4-0.6c0.2-0.4,0.8-1.5,0.8-1.5l0.7-1.3
	c0,0,0.9-1.4,0.9-1.4c0.1-0.1,0.6-0.9,0.8-1.1c0.1-0.2,0.4-0.4,0.6-0.5c0.2-0.1,0.8-0.6,0.8-0.6c0.1,0,0.4,0,0.5,0
	c0.1,0,0.3-0.1,0.4-0.2c0.1-0.1,0.2-0.4,0.2-0.4s0.2-0.2,0.3-0.2c0.1,0,0.2-0.2,0.4-0.3c0.2-0.1,0.8-0.6,0.9-0.7
	c0-0.1,0.3-0.5,0.3-0.5c0-0.1,1.2-0.6,1.2-0.6s1.2-0.8,1.6-1c0.7-0.4,2.7-1.3,2.7-1.3s1.4-0.5,1.4-0.6c0.1,0,1.2-0.4,1.4-0.4
	c0.2-0.1,1.3-0.5,1.5-0.7c0.3-0.2,0.8-0.6,1-0.8c0.2-0.2,0.7-0.5,0.9-0.6c0.2-0.1,0.4-0.2,0.4-0.2s1.1-0.4,1.4-0.5
	c0.3-0.1,1.2-0.2,1.6-0.3c0.4-0.1,1.2-0.4,1.6-0.4c0.4-0.1,1.9-0.2,2-0.3c0.2,0,1.7-0.4,2.1-0.5c0.4-0.1,1.3-0.5,1.5-0.5
	c0.2-0.1,1-0.4,1.3-0.4c0.2-0.1,1.5-0.5,1.6-0.5c0.1,0,1.4-0.1,1.7-0.1c0.3,0,1.4,0.2,1.6,0.2s0,0,0,0V15.6L94.5,15.2z M68.6,31.2
	c-0.1,0.3-0.5,1.1-0.5,1.1s-0.7,1.1-0.7,1.2c-0.1,0.1-1,1.3-1.4,1.7c-0.3,0.3-1,1-1.4,1.3c-0.7,0.6-2.2,1.7-2.8,2.3
	c-0.3,0.2-0.8,0.9-1,1c-0.2,0.2-1,0.7-1.3,1c-0.4,0.4-0.9,1.2-1.1,1.7c-0.2,0.4-0.4,0.9-0.7,1.8c0,0.1-0.5,2.6-0.5,2.6
	s-0.2,0.9,0,1.7c0.1,0.3,0.6,1.1,0.6,1.1c-0.1-0.2-0.3-0.4-0.4-0.6c-0.3-0.3-0.9-1-1.2-1.3c-0.4-0.4-1.3-0.9-1.7-1.1
	c-0.4-0.2-1.1-0.6-1.5-0.7c-0.9-0.3-3.6-0.6-3.6-0.6s-5.9-0.2-7.9-0.1c-0.4,0-1.2,0.1-1.6,0.1c-0.3,0-1.1-0.2-1.2-0.2
	c-0.2,0-0.9-0.5-1.1-0.6c-0.2-0.1-0.9-0.5-1-0.5c-0.1,0-0.7-0.5-0.9-0.7c-0.2-0.3-0.9-1.1-0.9-1.1s-0.6-1-0.8-1.3
	c-0.2-0.3-0.5-0.9-0.6-1.2c-0.1-0.3-0.3-0.8-0.4-1.1c-0.1-0.2-0.3-0.6-0.4-0.9c0-0.1-0.1-0.5-0.2-0.6c-0.1-0.1-0.3-0.2-0.3-0.3
	c-0.2-0.4,0-1.4,0-1.6c0-0.2,0-0.9,0.1-1.2c0.1-0.2,0.3-0.6,0.4-0.8c0.1-0.2,0.6-0.9,0.6-0.9l0.5-1.2c0,0,0.1-0.9,0.3-1.2
	c0.1-0.2,0.6-0.3,0.8-0.4c0.2-0.1,0.8-0.9,0.9-0.9c0.1-0.1,0.8-1,1.1-1.3c0.2-0.2,0.7-0.6,0.9-0.8c0.2-0.2,0.5-0.8,0.6-1.1
	c0.1-0.2,0.3-0.7,0.3-0.9c-0.1-0.9-0.4-3.1-0.4-3.2c0-0.8,0.5,2.3,0.7,3c0,0.1,0.2,0.5,0.3,0.5c0.2,0.1,0.6,0.1,0.8,0.1
	c0.3,0.1,0.4,0.3,0.6,0.4c0.3,0.2,1,0.3,1.2,0.3c0.2,0,0.9,0.2,1.1,0.1l1.3-1l1.5-1.2c0,0-0.5,0.8-0.8,1c-0.1,0.1-1.8,1.5-1.8,1.5
	L43,26.1c0,0,0.7,1.2,0.9,1.6c0.1,0.2,0.1,0.6,0.2,0.8c0.1,0.3,0.6,0.8,0.8,0.9c0.2,0,1.4,0.5,1.5,0.5s1,0.3,1.3,0.3
	c0.3,0,1,0.1,1.4,0c0.2,0,0.6-0.2,0.7-0.3c0.2-0.1,0.5-0.5,0.5-0.7c0,0,0-0.1,0-0.1c0.1,0.1,0.1,0.1,0.2,0.2c0.3,0.2,1,0.2,1.3,0
	c0.8-0.5,1.6-2.2,1.9-3.1c0.2-0.6,0.3-2.3,0.3-2.3l-0.1-1c0,0-0.2-0.5-0.2-0.6l-0.1-0.3c-0.9-1.1-4.5-1.7-4.5-2.1c0,0,4,1,4.6,1.8
	c0.2,0.2,0-1,0-1.3c0-0.2,0.2-0.6,0.2-0.6s0.5-0.4,0.7-0.5c0.2-0.2,0.6-0.9,0.6-0.9c-0.1,0-0.2-0.2-0.2-0.2s-0.8-0.7-1-1
	c-0.6-0.9-1.7-3.9-1.5-3.9c0.2,0,1.4,3.2,1.8,3.6c0.2,0.2,1.3,1.3,1.3,1.3l1,0.2c0,0,0.8,0.2,0.9,0.2c0.1,0,1,0.3,1,0.3l1.1,0.2
	c0,0,0.8,0.1,1,0.2c0.2,0.1,0.7,0.4,0.7,0.4s0.9,0.4,1,0.4c0.1,0,1,0.4,1.1,0.4c0.1,0,0.9,0.4,0.9,0.5c0.1,0,0.9,0.9,0.9,0.9
	s0.6,0.6,0.7,0.7c0,0.1,0.8,0.9,0.8,0.9c0,0.1,0.2,0.8,0.3,1.1c0.1,0.3,0.7,1.2,0.7,1.2l0.7,1.6c0,0,0.6,1.2,0.6,1.6
	C68.9,29.3,68.7,30.6,68.6,31.2z"/>
</svg>
