<?xml version="1.0" encoding="utf-8"?>
<!-- Generator: Adobe Illustrator 24.0.3, SVG Export Plug-In . SVG Version: 6.00 Build 0)  -->
<svg version="1.1"
	 id="Layer_1" xmlns:cc="http://creativecommons.org/ns#" xmlns:dc="http://purl.org/dc/elements/1.1/" xmlns:rdf="http://www.w3.org/1999/02/22-rdf-syntax-ns#" xmlns:svg="http://www.w3.org/2000/svg"
	 xmlns="http://www.w3.org/2000/svg" xmlns:xlink="http://www.w3.org/1999/xlink" x="0px" y="0px" viewBox="0 0 100 99.7"
	 style="enable-background:new 0 0 100 99.7;" xml:space="preserve">
<style type="text/css">
	.st0{fill-rule:evenodd;clip-rule:evenodd;}
</style>
<path class="st0" d="M46.6,5C36.1,5.2,25.3,9,18,16.7c-6.8,7.2-8.6,18.2-6,27.7c2.4,8.6,8.1,15.8,11.1,24.2
	c1.5,4.2,0.2,8.8-1.3,12.8c-1,2.6-2.3,9.5-3.2,13.7h44.8c-0.2-3.1-0.5-8.4,0.8-8.6C68.4,86,73.2,86.6,77,84c3.3-2.2,4.2-6.5,4-10.3
	c0-0.7-0.4-1.5,0.3-2.1c1.2-1,1.3-2.5,0.7-4.3c1.5-1.1,2.3-3.6,1.1-5.2c-0.2-0.2-0.7-0.8,0-0.9c2.5-0.3,5.4-1.6,6.1-4.2
	c0.7-2.5-1.2-4.8-2.5-6.8c-1.6-2.6-4.4-4.6-5.3-7.7c-0.7-2.3,0.5-4.8,0.2-7.2C79.2,17.9,68.9,5,47.6,5C47.3,5,46.9,5,46.6,5z
	 M30.9,18.4c3.4,0,6.4,2,8.2,4.6c1.8-2.6,4.8-4.6,8.2-4.6c4.2,0,7.9,2.6,9.3,6.3c-1.4,0.4-2.6,1-3.8,1.8c-3.9-3-9.7-2.8-13.6,0.1
	c-3,2.1-4.9,5.8-4.5,9.5c0.4,4.8,3.2,9.1,6.7,12.3c-0.8,0.8-1.6,1.7-2.3,2.5c-6.1-7.4-17-11.3-18.2-22.6
	C20.4,22.9,25.4,18.4,30.9,18.4z M46.2,25.6c2.6,0,4.8,1,6.6,2.6c1.8-1.5,4-2.6,6.6-2.6c5.7,0,10.4,4.6,10.3,10.3
	c-0.1,4.3-3,7.6-6.1,10.7c-3.1,3.1-6.7,6-9.1,8.8l-1.8,2.2L51,55.4c-2.2-2.6-5.4-4.8-8.5-7.7c-3.1-2.8-6-6.4-6.6-11.7
	C35.3,30.2,40.6,25.6,46.2,25.6z M46.2,30.2c-3.2,0-6,2.6-5.7,5.4c0.4,3.8,2.3,6.2,5.1,8.7c2.2,2,4.8,3.8,7.2,6.2
	c2.5-2.6,5.3-4.9,7.6-7.2c2.9-2.8,4.7-5.4,4.7-7.5c0.1-3.1-2.5-5.6-5.7-5.6c-1.8,0-3.6,1.1-4.7,2.7l-1.9,2.8l-1.9-2.8
	C49.9,31.3,48.1,30.2,46.2,30.2z"/>
</svg>
