<?xml version="1.0" encoding="utf-8"?>
<!-- Generator: Adobe Illustrator 24.0.3, SVG Export Plug-In . SVG Version: 6.00 Build 0)  -->
<svg version="1.1" id="Layer_1" xmlns="http://www.w3.org/2000/svg" xmlns:xlink="http://www.w3.org/1999/xlink" x="0px" y="0px"
	 viewBox="0 0 80.1 88.4" style="enable-background:new 0 0 80.1 88.4;" xml:space="preserve">
<g>
	<path d="M22.4,44.3c-0.3-2.1-0.5-4.2-0.7-6.3c0.1,4.2,0.5,8.4,1.4,12.6c0.4,2.1,1.1,4.1,1.9,6.1c0.8,1.9,1.8,3.9,3.4,5.4
		c3.3,2.6,6.5,5.5,8.4,9.2c1,1.8,1.5,3.9,1.2,6c-0.3,2-1.5,3.9-3.2,5c1.8-1.1,3.1-2.9,3.5-5c0.4-2.1-0.1-4.3-1.1-6.2
		c-1.9-3.8-5.1-6.8-8.4-9.4c-1.6-1.4-2.5-3.3-3.3-5.2c-0.8-1.9-1.5-3.9-2-6C23,48.4,22.7,46.3,22.4,44.3z"/>
	<path d="M51.5,67.7c1.3-1.9,2.1-4.1,2.2-6.4c0-1.1-0.1-2.3-0.7-3.2c-0.3-0.5-0.7-0.8-1.2-0.7c-0.5,0-1.1,0.2-1.6,0.4
		c-1,0.5-1.8,1.3-2.5,2.2c-0.7,0.8-1.3,1.8-1.8,2.7c0.2,0.5,0.3,1,0.5,1.5c0.5,1.7,0.6,3.4,0.6,5.2c0,1-0.2,1.9-0.4,2.8
		c1.1-0.2,2-1.1,2.8-1.8C50.2,69.6,50.9,68.6,51.5,67.7z"/>
	<path d="M66.2,68.3c-0.6,1.8-1.5,3.4-2.5,5c-1,1.6-2.1,3.1-3.5,4.4c-1.3,1.3-2.9,2.3-4.7,3c0.9-0.2,1.8-0.6,2.6-1.1
		c0.8-0.5,1.6-1,2.3-1.7c1.4-1.2,2.6-2.8,3.6-4.4c0.5-0.8,1-1.7,1.4-2.5c0.4-0.8,0.8-1.7,1.1-2.6c0.5-1.8,0.7-3.8,0.3-5.6
		c0.1,0.5,0.1,0.9,0.1,1.3C67,65.5,66.7,66.9,66.2,68.3z"/>
	<path d="M22,37l0.2,0.1L22,37L22,37L22,37c-1.5-0.1-3,0-4.6,0.1c-1.5,0.1-3,0.3-4.5,0.6c1.5,0.1,3,0,4.6-0.1
		C19,37.4,20.5,37.3,22,37z"/>
	<path d="M35.2,75.8c-0.4-3.4-2.4-6.3-4.9-8.4c-1.3-1-2.7-1.9-4.3-2.5c-1.6-0.6-3.3-0.9-4.9-0.7c-1.6,0.2-3.4,0.9-4.2,2.4
		c-0.8,1.5-0.9,3.2-0.6,4.8c-0.2-1.6,0-3.3,0.8-4.7c0.8-1.4,2.5-2.1,4.1-2.2c1.6-0.1,3.2,0.1,4.7,0.7c1.5,0.6,2.9,1.5,4.1,2.5
		c2.5,2,4.5,4.9,4.9,8.1c0.2,1.6-0.2,3.3-1.2,4.5c-1,1.3-2.6,1.9-4.3,2c1.6,0,3.3-0.5,4.5-1.8C35,79.2,35.4,77.4,35.2,75.8z"/>
	<path d="M38.1,66.1c-1.7-2.1-3.8-3.7-5.9-5.2c-1-0.8-1.9-1.8-2.6-2.9c-0.8-1.1-2.1-1.7-3.4-1.9c1.3,0.3,2.5,0.9,3.2,2
		c0.7,1.1,1.5,2.2,2.5,3c2.1,1.6,4.2,3.2,5.8,5.2c0.8,1,1.5,2.1,2,3.3c0.5,1.2,0.8,2.5,1,3.7c0.2,1.3,0.1,2.6-0.3,3.8
		c-0.4,1.2-1.1,2.3-2,3.3c0.9-0.9,1.7-2,2.2-3.2c0.5-1.2,0.6-2.6,0.4-3.9C40.8,70.8,39.8,68.2,38.1,66.1z"/>
	<path d="M59.5,75.7c1.3-1.6,2.3-3.3,3.2-5.1c0.8-1.8,1.6-3.7,1.9-5.7c0.4-2,0.5-4,0.1-6c0.2,2,0,4-0.5,5.9c-0.4,1.9-1.2,3.8-2,5.6
		c-0.8,1.8-1.9,3.5-3.1,5.1c-1.2,1.6-2.6,3-4.3,4.1C56.7,78.6,58.2,77.2,59.5,75.7z"/>
	<path d="M43.5,67.5c-1-2.5-2.5-4.7-4.2-6.7c-0.9-1-1.9-1.9-2.9-2.8c-1-0.9-2.2-1.6-3.4-2.1c-2.4-1.1-5-1.8-7.6-2.1
		c2.6,0.4,5.1,1.2,7.5,2.4c1.2,0.6,2.3,1.3,3.2,2.1c1,0.9,1.9,1.8,2.8,2.8c1.8,1.9,3.2,4.1,4.2,6.5c0.5,1.2,0.8,2.5,1,3.8
		c0.2,1.3,0.2,2.6,0,3.9c0.2-1.3,0.3-2.6,0.2-4C44.3,70.1,44,68.8,43.5,67.5z"/>
	<path d="M67.4,62.7l-0.2-0.5c-0.5-1.4-1-2.5-0.7-4.9c0.1-0.5,0.1-1.1,0.2-1.8c0.4-2.8,1-7.1,1-11.2c0-7.9-1.6-15.7-4.9-23.2
		C58.6,10.9,50,3.8,42.2,3.8c-2.9,0-12.7,1.3-17.5,4.4c-4.9,3.1-9.3,9.9-11.1,17.3c-1.7,7-1.9,14.8-0.5,22c0.6,3,1.2,5.8,1.8,8.1
		c0.6,2.4,1,4.4,1,5.1c-0.5,1.6-1.1,5.7-1.1,6.3c0,0,0,4.9,2.9,9c2.6,3.6,8.1,7.5,12.6,7.5c1.4,0,2.8-0.2,3.6-0.5l0.1,0
		c2-0.3,6-0.9,8.8-3.7c1,0.7,3.5,1.7,4.7,1.9c0.4,0.2,1,0.3,1.3,0.4c0,0,0,0,0,0c0.8,0.2,2.7,0,2.7,0l2.7-0.1c0.1,0.1,0.4,0.1,1,0.1
		c0.8,0,3.7-0.2,7-3.2c3.3-3,5.8-8,5.7-11.6C68,64.3,67.6,63.3,67.4,62.7z M66.6,35.5C66.6,35.5,66.6,35.5,66.6,35.5
		c0.2,1.3,0.4,2.5,0.5,3.8c-0.2,0-1,0-2.3,0.1c0-0.9,0-1.7-0.1-2.7c-0.1-0.3-0.3-0.5-0.6-0.6c-0.3-0.1-0.6,0-0.8,0l-1.3,0.1
		l-1.3,0.2l-0.3,0.1c-0.1,0-0.2,0-0.4,0.1c-0.2,0.2-0.2,0.4-0.2,0.5c0,0.1,0,0.2,0.1,0.4c0.2,0.8,0.3,1.7,0.5,2.5
		c-0.2,0-0.4,0.1-0.4,0.1l-0.6-3.7L66.6,35.5z M63.2,39.6c-1.5,0.1-2.3,0.3-2.8,0.4c0-0.9-0.1-1.7-0.2-2.6c0-0.1,0-0.4,0-0.4l0.6,0
		l1.3-0.2l1.3-0.2c0.4-0.1,0.8,0,0.9,0.3c0.1,0.8,0.3,1.7,0.5,2.6C64.3,39.5,63.8,39.6,63.2,39.6z M63.4,56.2c-0.4-0.3-0.7-0.6-1-1
		l-1-1c-0.7-0.6-1.3-1.3-2-2c0.4,0.2,0.8,0.4,1.2,0.7c0.4,0.3,0.7,0.6,1.1,0.9C62.4,54.6,63,55.3,63.4,56.2z M43.1,11.6
		C46,12.8,53,17.1,57,29.2c1.5,4.3,1.9,6.6,1.9,6.9l0,0.1c0,0,0,0.1,0,0.1l0.6,4c0,0,0,0.1,0.1,0.2l0,0c0,0.9,0.2,7.4-0.5,11.4
		c-1.2-0.7-2.4-1-3.5-1c-3.5,0-8,3.3-11.5,8.4c-0.8-1.2-1.8-2.4-2.8-3.6c-4.3-4.7-10.1-5.9-12.5-5.9c-1.8,0-3.6,0.5-4.2,0.7
		c-1.1-4.6-1.7-9.4-1.7-14.5c0-1.1,0.2-4,0.2-4c0-0.1,0.2-2.5,1-5.8c0.8-3.3,2.1-7.3,4.5-10.6C32.3,10.1,37.1,8.8,43.1,11.6z
		 M42.6,78.7c-2.1,2.3-5.2,3.1-7.4,3.5c2.4-1.4,3.8-4.2,3.8-7c0-1.5-0.4-2.9-1-4.3c-0.3-0.7-0.6-1.3-1-2c-0.3-0.6-0.7-1.3-1.2-1.9
		c-1.8-2.3-4.2-4-6.3-6c-0.5-0.5-1.1-1-1.5-1.5c-0.4-0.5-0.8-1.1-1.2-1.8c-0.7-1.2-1.3-2.6-1.8-3.9c0.4,1.4,1,2.7,1.6,4
		c0.3,0.6,0.7,1.3,1.2,1.9c0.4,0.6,1,1.1,1.5,1.6c2.1,2,4.4,3.7,6.2,6c1.6,2.3,3,5,3.1,7.8c0.1,1.4-0.3,2.8-0.9,4.1
		c-0.6,1.1-1.4,2.2-2.5,2.9c-0.1,0-0.3,0-0.4,0.1c0,0,0,0,0,0c-0.3,0-0.6,0.1-0.8,0.1l-0.1,0c-0.8,0.3-2.2,0.4-3.5,0.4
		c-4.3,0-9.7-3.8-12.2-7.3c-2.8-3.9-2.8-8.6-2.8-8.7c0-0.5,0.5-4.6,1-6.2c0,0,0,0,0-0.1c0-0.8-0.4-2.6-1-5.2c-0.5-2.2-1.2-5-1.7-8.1
		c-0.9-4.8-1.1-10-0.6-14.9c1.5,0.1,3,0,4.4-0.1c1.5-0.1,3-0.2,4.5-0.5c-1.5-0.1-3,0-4.6,0c-1.5,0.1-3,0.3-4.4,0.5
		c0.2-2.3,0.6-4.6,1.1-6.8c1.8-7.2,6-13.9,10.8-17c3.5-2.2,9.6-3.5,13.8-4c-1.5,0.4-6.2,2-10.4,7.5c-4.9,6.6-6.2,15.7-6.3,19.7
		c0,0.1,0.1,0.2,0.2,0.2l0.2,0.1c-0.1,0.7-0.2,2.9-0.2,3.9c0,5.3,0.6,10.2,1.8,14.9c0.2,0.9,0.5,1.7,0.7,2.4l0,0.1
		c0,0.1,0.1,0.2,0.3,0.2c4.8-0.3,9.1,1.5,13.3,5.5c3.4,3.2,5.7,7.3,6.4,11C45.3,73.9,44.5,75.9,42.6,78.7z M45.5,74.3
		c0.6-1.6,0.9-3.3,1-4.9c0.1-1.7-0.1-3.4-0.4-5.1c-0.2-0.8-0.4-1.6-0.7-2.4c-0.3-0.8-0.7-1.6-1.2-2.2c0.8,0.9,1.4,2,1.8,3.1
		c0.9-2,2.1-4.1,4.1-5.3c0.5-0.3,1.1-0.5,1.7-0.5c0.3,0,0.7,0.1,1,0.2c0.3,0.2,0.5,0.4,0.6,0.7c0.7,1.1,0.8,2.3,0.8,3.5
		c-0.1,2.4-1,4.7-2.4,6.6c-0.7,1-1.4,1.9-2.3,2.7c-0.9,0.8-1.8,1.5-3,1.7c-0.2,0.8-0.4,1.5-0.7,2.2c-0.7,1.6-1.5,3.1-2.7,4.4
		C44.2,77.4,44.9,75.9,45.5,74.3z M44.5,79.3c1.4-0.2,2.8-0.8,4-1.5c1.2-0.7,2.4-1.5,3.5-2.5c2.1-1.9,3.9-4.2,5.3-6.7
		c1.4-2.5,2.5-5.2,2.8-8c0.2-1.4,0.2-2.8,0-4.3c-0.2-1.4-0.7-2.8-1.6-3.9c1,1,1.6,2.4,1.9,3.9c0.3,1.4,0.3,2.9,0.1,4.3
		c-0.2,1.4-0.5,2.8-1,4.2L57,70c-1.3,2.1-2.9,4-4.8,5.6C50,77.5,47.4,79,44.5,79.3z M62,77.8c-3.2,2.9-5.9,3.1-6.7,3.1
		c-0.6,0-0.9-0.1-0.9-0.1c0,0-0.1,0-0.1,0l-2.7,0.1c0,0,3.8-0.7,7.3-5.9c3.6-5.2,4.7-9.7,5-11.2c0.3-1.6,0.5-3.3,0.2-5.4
		c-0.1-0.9-0.5-1.9-0.5-1.9c0,0.1,1.8,2.4,3.3,6.3c0.2,0.6,0.6,1.6,0.6,3.7v0.2C67.6,70.2,65.2,74.9,62,77.8z"/>
</g>
</svg>
