<?xml version="1.0" encoding="utf-8"?>
<!-- Generator: Adobe Illustrator 24.0.3, SVG Export Plug-In . SVG Version: 6.00 Build 0)  -->
<svg version="1.1" id="Layer_1" xmlns="http://www.w3.org/2000/svg" xmlns:xlink="http://www.w3.org/1999/xlink" x="0px" y="0px"
	 viewBox="0 0 32 32.3" style="enable-background:new 0 0 32 32.3;" xml:space="preserve">
<path d="M26.1,11.3V6.9h0.1c0.2,0,0.3-0.1,0.3-0.3V5.5c0-0.2-0.1-0.3-0.3-0.3h-0.1h-4.2h-0.1c-0.2,0-0.3,0.1-0.3,0.3v1.1
	c0,0.2,0.1,0.3,0.3,0.3h0.1v0.6l-5-4.7c-0.5-0.4-1.2-0.4-1.7,0l-13,12.1c-0.2,0.2-0.2,0.6,0,0.8l0.9,1c0.2,0.2,0.6,0.2,0.8,0L16,5.3
	l12.1,11.3c0.2,0.2,0.6,0.2,0.8,0l0.9-1c0.2-0.2,0.2-0.6,0-0.8L26.1,11.3z"/>
<path d="M16,6.6L5.9,16c0,0,0,9.2,0,12.4c0,0.6,0.5,1.1,1.1,1.1H25c0.6,0,1.1-0.5,1.1-1.1V16L16,6.6L16,6.6z M16,25.9
	c-9-5.3-3.8-11.8,0-7.6C19.8,14.2,25,20.6,16,25.9z"/>
</svg>
