<svg id="Layer_1" data-name="Layer 1" xmlns="http://www.w3.org/2000/svg" viewBox="0 0 100 103"><title>Artboard 1</title><path d="M79.1,71.5l3.5,2,.1-.2a39.79,39.79,0,0,0,7.5-23.4A40.29,40.29,0,0,0,50.1,9.2,40.45,40.45,0,0,0,50,90.1a36.79,36.79,0,0,0,11.1-1.6l.2-.1-.8-4-.3.1a37,37,0,0,1-10.4,1.6A36.19,36.19,0,1,1,79.1,71.3Z"/><path d="M84.2,16A47.73,47.73,0,0,0,50.1,1.8,45.69,45.69,0,0,0,37.2,3.6l-.2.1.7,3.7.3-.1A45.89,45.89,0,0,1,50.1,5.6,44.45,44.45,0,1,1,5.6,49.9a43.91,43.91,0,0,1,8.2-25.7L14,24l-3.3-1.9-.1.2A47.36,47.36,0,0,0,1.8,50.1,48.2,48.2,0,1,0,84.2,16Z"/><path d="M49.8,27,23.1,44.9l2.3,3.4,5.3-3.6V69.3H69.3V44.9l5.2,3.4,2.3-3.4Zm7.1,27.7c-1,1.9-6.4,6.9-6.8,7.4h0c-.6-.6-5.8-5.5-6.8-7.3,0,0-2.7-3.3,0-5.8,0,0,3.9-3.3,6.8,1.2C53,45.7,56.9,49,56.9,49,59.6,51.4,56.9,54.7,56.9,54.7Z"/></svg>