<?xml version="1.0" encoding="utf-8"?>
<!-- Generator: Adobe Illustrator 24.0.3, SVG Export Plug-In . SVG Version: 6.00 Build 0)  -->
<svg version="1.1" id="Layer_1" xmlns="http://www.w3.org/2000/svg" xmlns:xlink="http://www.w3.org/1999/xlink" x="0px" y="0px"
	 viewBox="0 0 100 86.5" style="enable-background:new 0 0 100 86.5;" xml:space="preserve">
<g>
	<path d="M94.4,41.3L82.2,31.2V8.4c0-0.5-0.2-0.9-0.5-1.3c-0.3-0.3-0.8-0.5-1.3-0.5H69.7c-0.5,0-0.9,0.2-1.3,0.5
		c-0.3,0.3-0.5,0.8-0.5,1.3v10.9L54.2,7.9c-1.2-1-2.6-1.5-4.2-1.5s-3.1,0.5-4.2,1.5L5.6,41.3C5.2,41.6,5,42,5,42.5s0.1,0.9,0.4,1.3
		L8.9,48c0.3,0.3,0.7,0.5,1.2,0.6c0.4,0,0.9-0.1,1.3-0.4l38-31.7c0.3-0.3,0.9-0.3,1.2,0l38,31.7c0.3,0.3,0.7,0.4,1.2,0.4H90
		c0.5-0.1,0.9-0.3,1.2-0.6l3.5-4.1c0.3-0.4,0.4-0.8,0.4-1.3S94.8,41.6,94.4,41.3z"/>
	<path d="M78.2,79.2c2.2,0,4-1.8,4-4V48.5c0-0.4-0.3-1-0.6-1.3L50.6,21.4c-0.3-0.3-0.9-0.3-1.2,0c0,0-26.5,21.9-30.9,25.6
		c-0.3,0.3-0.6,0.9-0.6,1.3c0,2,0,19,0,26.9c0,2.2,1.8,4,4,4H78.2z M49.7,73c-1.9,0-3.4-1.5-3.4-3.4c0-1.9,1.5-3.4,3.4-3.4
		c1.9,0,3.4,1.5,3.4,3.4C53.2,71.5,51.6,73,49.7,73z M50,38.9l0.2,0c3.6,0,9.6,1.9,9.6,9.1c0,4.2-2.4,6.3-4.5,8.2
		c-1.6,1.4-3,2.6-2.9,4.4c0,0.5,0,0.6,0,0.7c0,0.1,0,0.1,0,0.4c0,1.2-1.2,2.3-2.3,2.3h-0.5c-1.2,0-2.3-1.1-2.3-2.3
		c-0.1-5,2.7-7.3,5-9.1c1.6-1.3,3-2.4,3-4c0-3.5-1.5-5-5.1-5c-2.9,0-4.6,1.9-4.6,5c0,1.8-1.3,2.6-2.6,2.6c-0.7,0-1.3-0.2-1.8-0.6
		c-0.5-0.5-0.8-1.1-0.8-1.9C40.2,40.3,46.3,39,50,38.9z"/>
</g>
</svg>
