<?xml version="1.0" encoding="utf-8"?>
<!-- Generator: Adobe Illustrator 24.0.3, SVG Export Plug-In . SVG Version: 6.00 Build 0)  -->
<svg version="1.1" id="Layer_1" xmlns="http://www.w3.org/2000/svg" xmlns:xlink="http://www.w3.org/1999/xlink" x="0px" y="0px"
	 viewBox="0 0 50 50.2" style="enable-background:new 0 0 50 50.2;" xml:space="preserve">
<g>
	<g>
		<path d="M4.9,27v-1.3C4.9,19,8.4,13,13.6,9.4c-0.7-0.6-1.1-1.4-1.2-2.2c-6,4-9.9,10.8-9.9,18.5v1.8c0.6-0.4,1.4-0.6,1.9-0.6
			C4.6,26.9,4.8,27,4.9,27z"/>
		<path d="M45.1,25.7V27c0.2-0.1,0.4-0.1,0.6-0.1c0.5,0,1.3,0.2,2,0.6v-1.8c0-7.7-3.9-14.5-9.9-18.5c-0.1,0.9-0.6,1.6-1.2,2.2
			C41.6,13,45.1,19,45.1,25.7z"/>
		<path d="M5.1,31l0.5-0.3c0-0.3,0.1-0.6,0.2-0.8c0,0,0-0.1,0-0.1c-0.3-0.9-0.7-1.6-1.2-1.8c-0.6-0.2-2.2,0.4-2.4,1
			c-0.3,0.7,0.4,2.2,1.1,3.4C3.9,31.9,4.5,31.4,5.1,31z"/>
		<path d="M6.1,33.3l-0.2-0.5c-0.1-0.3-0.2-0.6-0.2-0.8c-0.6,0.4-1.2,0.9-1.7,1.4c-2.5,2.5-3.7,6.2-2.4,9.5
			c1.6,3.9,6.4,5.7,10.6,4.8c-0.2-0.2-0.3-0.5-0.4-0.8L6.1,33.3z"/>
		<path d="M11.9,30.3c-0.6-1.4-2.2-2.1-3.6-1.5c-0.7,0.3-1.2,0.8-1.5,1.5s-0.3,1.4,0,2.1l5.8,14.1c0.6,1.4,2.2,2.1,3.6,1.5
			c1.4-0.6,2.1-2.2,1.5-3.6L11.9,30.3z"/>
		<path d="M45.3,28c-0.5,0.2-0.9,1-1.2,1.8c0,0,0,0,0,0.1c0.1,0.3,0.2,0.5,0.2,0.8l0.5,0.3c0.6,0.4,1.2,0.8,1.7,1.4
			c0.7-1.2,1.4-2.7,1.1-3.4C47.5,28.4,45.9,27.7,45.3,28z"/>
		<path d="M46.1,33.3c-0.5-0.5-1.1-1-1.7-1.4c0,0.3-0.1,0.6-0.2,0.8l-0.2,0.5l-5.6,13.5c-0.1,0.3-0.2,0.5-0.4,0.8
			c4.1,0.9,9-0.9,10.6-4.8C49.8,39.6,48.6,35.8,46.1,33.3z"/>
		<path d="M43.2,30.3c-0.3-0.6-0.8-1.2-1.5-1.5c-1.4-0.6-3,0.1-3.6,1.5l-5.8,14.1c-0.6,1.4,0.1,3,1.5,3.6c1.4,0.6,3-0.1,3.6-1.5
			l5.8-14.1C43.5,31.7,43.5,30.9,43.2,30.3z"/>
		<path d="M16.1,9.3c0.4,0,0.8-0.1,1.2-0.3c2.4-1.1,5-1.6,7.7-1.6c2.7,0,5.3,0.6,7.7,1.7c0.4,0.2,0.8,0.3,1.2,0.3
			c1,0,1.9-0.5,2.4-1.3c0.4-0.7,0.5-1.5,0.2-2.2C36.3,5,35.8,4.4,35,4c-3.2-1.4-6.5-2.2-10-2.2c-3.5,0-6.9,0.7-10,2.2
			c-1,0.5-1.7,1.5-1.7,2.6c0,0.5,0.1,1,0.4,1.4C14.2,8.8,15.1,9.3,16.1,9.3z"/>
	</g>
</g>
</svg>
