<?xml version="1.0" encoding="utf-8"?>
<!-- Generator: Adobe Illustrator 24.0.3, SVG Export Plug-In . SVG Version: 6.00 Build 0)  -->
<svg version="1.1" id="Layer_1" xmlns="http://www.w3.org/2000/svg" xmlns:xlink="http://www.w3.org/1999/xlink" x="0px" y="0px"
	 viewBox="0 0 80.1 82.4" style="enable-background:new 0 0 80.1 82.4;" xml:space="preserve">
<style type="text/css">
	.st0{stroke:#000000;stroke-width:2;stroke-miterlimit:10;}
</style>
<g>
	<g>
		<path d="M44,19c-3.2-3.2-8.4-3.3-11.8-0.3l0,0l-1.9,1.9l-1.9-1.9l0,0c-3.3-3.1-8.5-3-11.8,0.3c-3.2,3.2-3.3,8.4-0.3,11.8l0,0
			l1.9,1.9l12.1,12.1l12.1-12.1l1.9-1.9l0,0C47.3,27.4,47.2,22.2,44,19z"/>
	</g>
</g>
<g>
	<path class="st0" d="M21.7,75.7l2.1-8c0-0.1,0-0.1-0.1-0.1h-3.5c-7,0-12.6-5.6-12.6-12.5V18.1c0-7,5.6-12.6,12.6-12.6h38.8
		c7,0,12.6,5.6,12.6,12.6v36.8c0,7-5.6,12.6-12.6,12.6H30.2c0,0-0.1,0-0.1,0l-8.3,8.3C21.8,75.9,21.6,75.8,21.7,75.7z M20.1,6.5
		c-6.4,0-11.6,5.2-11.6,11.6v36.8c0,6.4,5.2,11.6,11.6,11.6h4.7c0.1,0,0.1,0.1,0.1,0.1l-1.5,5.8c0,0.1,0.1,0.2,0.2,0.1l6-6.1
		c0,0,0.1,0,0.1,0h29.1c6.4,0,11.6-5.2,11.6-11.6V18.1c0-6.4-5.2-11.6-11.6-11.6H20.1z"/>
</g>
<g>
	<g>
		<path d="M46.5,47.2c-1.3-1.3-3.5-1.4-4.9-0.1l0,0l-0.8,0.8L40,47.1l0,0c-1.4-1.3-3.5-1.2-4.9,0.1c-1.3,1.3-1.4,3.5-0.1,4.9l0,0
			l0.8,0.8l5,5l5-5l0.8-0.8l0,0C47.8,50.6,47.8,48.5,46.5,47.2z"/>
	</g>
</g>
<g>
	<g>
		<path d="M63.1,31.4c-1.8-1.8-4.8-1.9-6.7-0.1l0,0l-1.1,1.1l-1.1-1.1l0,0c-1.9-1.8-4.9-1.8-6.7,0.1c-1.8,1.8-1.9,4.8-0.1,6.7l0,0
			l1.1,1.1l6.8,6.8l6.8-6.8l1.1-1.1l0,0C65,36.2,64.9,33.2,63.1,31.4z"/>
	</g>
</g>
</svg>
