<?xml version="1.0" encoding="utf-8"?>
<!-- Generator: Adobe Illustrator 24.0.3, SVG Export Plug-In . SVG Version: 6.00 Build 0)  -->
<svg version="1.1" id="Layer_1" xmlns="http://www.w3.org/2000/svg" xmlns:xlink="http://www.w3.org/1999/xlink" x="0px" y="0px"
	 viewBox="0 0 64 59.3" style="enable-background:new 0 0 64 59.3;" xml:space="preserve">
<title>movies</title>
<g>
	<path d="M58,22.9H15.2l3.5-0.9l0,0l6.2-1.5l0,0l5.5-1.4l0,0l6.2-1.5l0,0l5.5-1.4l0,0l14.7-3.7c0.5-0.1,0.9-0.7,0.7-1.2l-1.2-4.9
		c-0.3-1.2-1-2.3-2.1-3l0,0l0,0c-0.1,0-0.1-0.1-0.2-0.1c-1.1-0.7-2.5-0.9-3.8-0.5l-2.1,0.5l0,0l-5.5,1.3l0,0l-6.2,1.5l0,0L31,7.6
		l0,0l-6.2,1.5l0,0l-1.9,0.5L8.5,13.2c-2.7,0.7-4.3,3.4-3.7,6.1c0,0,0,0,0,0L6,24v26.9c0,2.8,2.2,5,5,5h43c2.8,0,5-2.2,5-5v-27
		C59,23.3,58.6,22.9,58,22.9z M49,5.2l1.7-0.4c0.5-0.1,1-0.1,1.5,0l-4.9,8.1l-3.4,0.9L49,5.2z M37.3,8.1l3.4-0.9l-5.1,8.5l-3.4,0.9
		L37.3,8.1z M25.7,11l3.4-0.9L24,18.6l-3.4,0.9L25.7,11z M7.1,16.5c0.4-0.7,1.1-1.2,1.9-1.4l8.5-2.1l-5.1,8.5l-4.7,1.1l-1-3.9
		C6.5,18,6.7,17.2,7.1,16.5z M39.5,40.2l-13,7c-0.1,0.1-0.3,0.1-0.5,0.1c-0.6,0-1-0.4-1-1v-14c0-0.6,0.5-1,1-1c0.2,0,0.3,0,0.5,0.1
		l13,7c0.5,0.3,0.7,0.9,0.4,1.4C39.8,40,39.6,40.2,39.5,40.2z"/>
</g>
</svg>
