<?xml version="1.0" encoding="utf-8"?>
<!-- Generator: Adobe Illustrator 24.0.3, SVG Export Plug-In . SVG Version: 6.00 Build 0)  -->
<svg version="1.1" id="Layer_1" xmlns="http://www.w3.org/2000/svg" xmlns:xlink="http://www.w3.org/1999/xlink" x="0px" y="0px"
	 viewBox="0 0 466 446" style="enable-background:new 0 0 466 446;" xml:space="preserve">
<title>Movie App</title>
<g>
	<path d="M423.4,204h-82.9c-11.3-0.1-20.8,8.7-21.6,20H445C444.2,212.7,434.7,203.9,423.4,204z"/>
	<path d="M319,418.5c0,11.8,9.5,21.5,21.4,21.5h0.1h82.9c11.9,0,21.6-9.6,21.6-21.4l0,0V407H319V418.5z M369.2,418h25.6
		c3.3,0,6,2.7,6,6s-2.7,6-6,6h-25.6c-3.3,0-6-2.7-6-6S365.9,418,369.2,418z"/>
	<path d="M340.5,192H380V44.1c-0.1-16.7-13.7-30.2-30.3-30.1H47.4C30.7,13.9,17.1,27.4,17,44.1V227h290v-1.9
		c0-18.3,14.9-33.2,33.2-33.1C340.3,192,340.4,192,340.5,192z M198.4,50c27.2,0,49.2,22,49.2,49.2s-22,49.2-49.2,49.2
		s-49.2-22-49.2-49.2C149.3,72,171.3,50,198.4,50z M301.8,193H165c-2.6,10-11.2,16.2-21.4,16.2s-18.7-6.2-21.4-16.2H95
		c-3.3,0-6-2.7-6-6s2.7-6,6-6h27.2c3.3-11.8,15.6-18.7,27.4-15.4c7.5,2.1,13.3,7.9,15.4,15.4h136.8c3.3,0,6,2.7,6,6
		S305.1,193,301.8,193z"/>
	<path d="M143.6,177.1c-5.6,0-10.2,4.6-10.2,10.2s4.6,10.2,10.2,10.2s10.2-4.6,10.2-10.2C153.8,181.7,149.3,177.1,143.6,177.1z"/>
	<path d="M367.1,382c-7.6,0-14.4-4.8-17-12H319v25h126v-25h-60.9C381.5,377.2,374.8,382,367.1,382z"/>
	<path d="M319,236v122h31.2c3.3-9.4,13.6-14.3,22.9-11c5.1,1.8,9.2,5.8,11,11H445V236H319z M381.9,331.7c-22.6,0-41-18.4-41-41
		s18.4-41,41-41s41,18.4,41,41S404.6,331.7,381.9,331.7z"/>
	<path d="M198.4,136.4c20.5,0,37.2-16.7,37.2-37.2S219,62,198.4,62s-37.2,16.7-37.2,37.2l0,0C161.3,119.7,177.9,136.4,198.4,136.4z
		 M185,81.3c0-3.3,2.6-6,5.8-6c1.2,0,2.5,0.4,3.5,1.1l25.9,17.9c2.7,1.9,3.4,5.6,1.5,8.3c-0.4,0.6-0.9,1.1-1.5,1.5L194.3,122
		c-1,0.7-2.2,1.1-3.4,1.1c-1,0-1.9-0.2-2.8-0.7c-2-1-3.2-3.1-3.2-5.3L185,81.3L185,81.3z"/>
	<polygon points="197,92.7 197,105.7 206.4,99.2 	"/>
	<path d="M17,265.4C17,282,30.7,296,47.4,296h145.8c-0.1,0.5-0.2,1.1-0.2,1.6V369h-69.3c-3.3,0-6,2.7-6,6s2.7,6,6,6h154
		c3.3,0,6-2.7,6-6s-2.7-6-6-6H205v-71.4c0-0.5-0.1-1.1-0.2-1.6H307v-57H17V265.4z"/>
	<path d="M381.9,261.7c-16,0-29,13-29,29s13,29,29,29s29-13,29-29S398,261.7,381.9,261.7z M401.8,294.2c-0.4,0.6-0.9,1.1-1.5,1.5
		l-21,14.5c-1,0.7-2.2,1.1-3.4,1.1c-1,0-1.9-0.2-2.7-0.7c-2-1-3.2-3.1-3.1-5.3v-29c0-2.2,1.2-4.3,3.1-5.3s4.3-0.9,6.1,0.4l21,14.5
		C403,287.7,403.6,291.4,401.8,294.2z"/>
	<circle cx="367.1" cy="363.8" r="6"/>
	<polygon points="382,293.8 386.5,290.7 382,287.7 	"/>
</g>
</svg>
