<?xml version="1.0" encoding="utf-8"?>
<!-- Generator: Adobe Illustrator 24.0.3, SVG Export Plug-In . SVG Version: 6.00 Build 0)  -->
<svg version="1.1" id="Layer_1" xmlns="http://www.w3.org/2000/svg" xmlns:xlink="http://www.w3.org/1999/xlink" x="0px" y="0px"
	 viewBox="0 0 512 394" style="enable-background:new 0 0 512 394;" xml:space="preserve">
<title>Media player</title>
<polygon points="218,203.3 314.6,143.5 218,83.6 "/>
<rect x="130" y="304" width="31" height="29"/>
<path d="M66,363h380c18.7,0,34-15.6,34-34.3V274H32v54.7C32,347.4,47.3,363,66,363z M74.3,313H118v-15.3c0.1-3.3,2.9-5.9,6.1-5.7
	c0,0,0,0,0,0h42.6c3.3-0.1,6.1,2.4,6.2,5.7c0,0,0,0,0,0V313h245.4c3.3,0,6,2.7,6,6s-2.7,6-6,6H173v13.7c-0.1,3.4-2.8,6.2-6.2,6.3
	h-42.6c-3.4-0.1-6.1-2.9-6.2-6.3V325H74.3c-3.3,0-6-2.7-6-6S71,313,74.3,313z"/>
<path d="M480,63.3c0-18.7-15.3-34.3-34-34.3H66c-18.7,0-34,15.6-34,34.3V262h448V63.3z M329.4,148.6l-114.1,70.6
	c-1,0.6-2.1,0.9-3.2,0.9c-1,0-2.1-0.3-3-0.8c-1.9-1-3.1-3.1-3.2-5.2V72.9c0-2.2,1.3-4.2,3.2-5.2c1.9-1.1,4.3-1,6.2,0.1l114.1,70.6
	c2.8,1.7,3.7,5.4,1.9,8.3C330.8,147.4,330.2,148.1,329.4,148.6L329.4,148.6z"/>
</svg>
