<?xml version="1.0" encoding="utf-8"?>
<!-- Generator: Adobe Illustrator 24.0.3, SVG Export Plug-In . SVG Version: 6.00 Build 0)  -->
<svg version="1.1" id="Layer_1" xmlns="http://www.w3.org/2000/svg" xmlns:xlink="http://www.w3.org/1999/xlink" x="0px" y="0px"
	 viewBox="0 0 93.5 95.8" style="enable-background:new 0 0 93.5 95.8;" xml:space="preserve">
<g>
	<g>
		<path d="M87.4,45.2v-9.7c2.5,0.1,4.6,2.2,4.6,4.8C92,43,89.9,45.1,87.4,45.2z"/>
		<rect x="42.7" y="35.5" width="41.3" height="9.7"/>
		<path d="M77.9,48.6v38.7c0,2.8-2.3,5.1-5.1,5.1H21.2c-2.8,0-5.1-2.3-5.1-5.1v-9.7h44.8c4.7,0,8.4-3.8,8.4-8.5v-4.8
			c0-4.7-3.8-8.5-8.4-8.5H16.1V7.5c0-2.8,2.3-5.1,5.1-5.1h37.4v12.1c0,4.7,3.8,8.5,8.5,8.5h10.9v9.2H41c-0.3,0-0.5,0-0.8,0.2
			l-12.7,6.5c-0.6,0.3-0.9,0.9-0.9,1.5c0,0.7,0.4,1.2,0.9,1.5l12.7,6.5c0.2,0.1,0.5,0.2,0.8,0.2L77.9,48.6L77.9,48.6z"/>
		<path d="M61.9,5l13.7,14.6H67c-2.8,0-5.1-2.3-5.1-5.1C61.9,14.5,61.9,5,61.9,5z"/>
		<polygon points="39.3,36.6 39.3,44.1 32,40.3 		"/>
		<path d="M11.9,63.9v-4.6h2.9v7.8c0,0.9,0.8,1.7,1.7,1.7c0.9,0,1.7-0.8,1.7-1.7v-7.8h2.9v4.6c0,0.9,0.8,1.7,1.7,1.7
			c0.9,0,1.7-0.8,1.7-1.7v-4.6h2.9v7.8c0,0.9,0.7,1.7,1.7,1.7c0.9,0,1.7-0.8,1.7-1.7v-7.8h2.9v4.6c0,0.9,0.7,1.7,1.7,1.7
			c0.9,0,1.7-0.8,1.7-1.7v-4.6H40v7.8c0,0.9,0.8,1.7,1.7,1.7c0.9,0,1.7-0.8,1.7-1.7v-7.8h2.9v4.6c0,0.9,0.8,1.7,1.7,1.7
			c0.9,0,1.7-0.8,1.7-1.7v-4.6h2.9v7.8c0,0.9,0.8,1.7,1.7,1.7c0.9,0,1.7-0.8,1.7-1.7v-7.8h4.9c2.8,0,5.1,2.3,5.1,5.1v4.8
			c0,2.8-2.3,5.1-5.1,5.1H7.1C4.3,74.3,2,72,2,69.2v-4.8c0-2.8,2.3-5.1,5.1-5.1h1.5v4.6c0,0.9,0.8,1.7,1.7,1.7
			C11.1,65.6,11.9,64.8,11.9,63.9z"/>
	</g>
</g>
</svg>
