<?xml version="1.0" encoding="utf-8"?>
<!-- Generator: Adobe Illustrator 24.0.3, SVG Export Plug-In . SVG Version: 6.00 Build 0)  -->
<svg version="1.1" id="Layer_1" xmlns="http://www.w3.org/2000/svg" xmlns:xlink="http://www.w3.org/1999/xlink" x="0px" y="0px"
	 viewBox="0 0 107.2 92.9" style="enable-background:new 0 0 107.2 92.9;" xml:space="preserve">
<path d="M27.5,32h13v-3.2h-13V32z M40.5,35.1H17.3v3.2h23.1V35.1z M40.5,41.5H17.3v3.2h23.1V41.5z M40.5,47.8H17.3v3.2h23.1V47.8z
	 M40.5,54.1H17.3v3.2h23.1V54.1z"/>
<g>
	<path d="M100.9,4.5H70.6c-9.9,0-14.8,2.3-17.1,4.8c-2.3-2.4-7.2-4.8-17.1-4.8H6.1c-1.4,0-2.6,1.2-2.6,2.6v71.7
		c0,1.4,1.2,2.6,2.6,2.6h0.3h16.1h13.9c6.4,0,12.8,2.7,12.8,3.1h0c1.3,1,1.3,1,2.6,1h3.5c1.3,0,1.4,0,2.6-1.2
		c0.2-0.4,6.8-2.8,12.7-2.8h13.9h16.1h0.3c1.4,0,2.6-1.2,2.6-2.6V7.1C103.5,5.7,102.3,4.5,100.9,4.5z M49.6,14v65.6
		c0,0-5.6-3.1-13.1-3.1c-1.8,0-27.7,0-27.7,0V9.3c0,0,25.9,0,27.7,0C51,9.3,49.6,14,49.6,14z M82.4,51c-3.7,2.9-4.7,4.7-5.9,5.9
		c-1.2-1.2-2.2-3-5.9-5.9c-3.6-2.7-8.2-6.5-8.2-11.7c0-7.6,9.4-10.5,14.1-3.5c4.7-7,14.1-4.1,14.1,3.6C90.6,44.5,85.9,48.2,82.4,51z
		"/>
	<path d="M27.5,32h13v-3.2h-13V32z M40.5,35.1H17.3v3.2h23.1V35.1z M40.5,41.5H17.3v3.2h23.1V41.5z M40.5,47.8H17.3v3.2h23.1V47.8z
		 M40.5,54.1H17.3v3.2h23.1V54.1z"/>
</g>
</svg>
