<?xml version="1.0" encoding="utf-8"?>
<!-- Generator: Adobe Illustrator 24.0.3, SVG Export Plug-In . SVG Version: 6.00 Build 0)  -->
<svg version="1.1" id="Layer_1" xmlns="http://www.w3.org/2000/svg" xmlns:xlink="http://www.w3.org/1999/xlink" x="0px" y="0px"
	 viewBox="0 0 333 329" style="enable-background:new 0 0 333 329;" xml:space="preserve">
<style type="text/css">
	.st0{fill-rule:evenodd;clip-rule:evenodd;}
</style>
<g>
	<g>
		<path class="st0" d="M291,191l13,8l-8,6v44l7-5v7c0,0-107,72-108,71c-17-13-37-29-57-44c10-8,20-16,31-25l27,20l-1,41l95-61v-44
			l-94,64l-27-20c26-19,56-43,81-62H291z M25,165h6v42l96,68l-1-40l57-43l64-1c-40,31-85,65-120,93c0,1-108-78-108-78v-7l6,4V165z
			 M67,193l59,42l57-43L67,193z"/>
		<path class="st0" d="M299,188v-6l-21-41h23v-10l-21-30c-38,9-96,23-110,27c-20,6-31,1-31,1l-86-24l-16,27c-8,6-13,15-13,25
			c0,18,15,33,33,33L299,188z M57,190c-1,1-1,1-2,1L57,190z M39,157c0-6,4-12,9-16h219v35H57C47,176,39,167,39,157z"/>
		<path class="st0" d="M297,84c-1-10-1-26,8-31c0,0,0,0,0-1c7-2,12-5,8-9L208,11L39,35c0,0-19,2-18,33c1,16,6,24,11,28l107,29
			c0,0,11,6,31,0c17-5,103-26,132-33C318,88,306,86,297,84z M157,83l28-6l96-19l14-3c-5,8-5,20-4,27c0,2,0,3,1,4l-16,4l-120,30
			L157,83z M31,66c0-8,1-14,4-17c2-1,4-2,6-2h1l73,24l36,12l-1,37L48,91l-5-1c-1,0-1,0-1,0S31,89,31,66z"/>
	</g>
</g>
</svg>
