<?xml version="1.0" encoding="utf-8"?>
<!-- Generator: Adobe Illustrator 24.0.3, SVG Export Plug-In . SVG Version: 6.00 Build 0)  -->
<svg version="1.1" id="Layer_1" xmlns="http://www.w3.org/2000/svg" xmlns:xlink="http://www.w3.org/1999/xlink" x="0px" y="0px"
	 viewBox="0 0 468 277" style="enable-background:new 0 0 468 277;" xml:space="preserve">
<g>
	<path d="M22.5,137.5c-6,0-10-5-10-10c0-6,4-10,10-10h106c5-54,51-96,106-96s100,42,105,96h106c6,0,10,4,10,10c0,5-4,10-10,10H22.5z
		"/>
	<path d="M81.5,196.5c-5,0-10-4-10-10c0-5,5-10,10-10h305c6,0,10,5,10,10c0,6-4,10-10,10H81.5z"/>
	<path d="M141.5,255.5c-6,0-10-4-10-10c0-5,4-10,10-10h186c5,0,10,5,10,10c0,6-5,10-10,10H141.5z"/>
</g>
</svg>
