<?xml version="1.0" encoding="utf-8"?>
<!-- Generator: Adobe Illustrator 24.0.3, SVG Export Plug-In . SVG Version: 6.00 Build 0)  -->
<svg version="1.1" id="Layer_1" xmlns="http://www.w3.org/2000/svg" xmlns:xlink="http://www.w3.org/1999/xlink" x="0px" y="0px"
	 viewBox="0 0 64 55.5" style="enable-background:new 0 0 64 55.5;" xml:space="preserve">
<title>device-tv</title>
<path d="M5.3,2.7C2.4,2.7,0,5.1,0,8v40c0,2.9,2.4,5.3,5.3,5.3h53.3c2.9,0,5.3-2.4,5.3-5.3V8c0-2.9-2.4-5.3-5.3-5.3h-48H5.3z M28.1,8
	c5.2,0,10.4,0,15.4,1.1c2,0.5,4.4,0.8,5.3,2.9c1,2.4,1.3,5.1,1.6,7.7c0.2,5.1,0.3,10.1-0.2,15.2c-0.5,2.7-0.5,6.1-3,8
	c-3.7,1.6-7.9,2.1-12,2.1c-6.6,0.3-13.1,0.5-19.7-0.3c-2.6-0.5-5.5-0.5-7.6-2.1c-2.3-2.7-2.1-6.4-2.7-9.6c-0.4-5.9-0.5-12,0.7-17.9
	c0.4-2.1,1.2-5.1,3.8-5.6C15.7,8,21.9,8,28.1,8L28.1,8z M53.3,10.7h8v2.7h-8V10.7z M53.3,16h8v2.7h-8V16z M21.3,18.7v16l13.3-8
	L21.3,18.7z M53.3,21.3h8V24h-8V21.3z M57.3,26.7c2.2,0,4,1.8,4,4s-1.8,4-4,4s-4-1.8-4-4S55.1,26.7,57.3,26.7z M57.3,37.3
	c2.2,0,4,1.8,4,4s-1.8,4-4,4s-4-1.8-4-4S55.1,37.3,57.3,37.3z"/>
</svg>
