<?xml version="1.0" encoding="utf-8"?>
<!-- Generator: Adobe Illustrator 24.0.3, SVG Export Plug-In . SVG Version: 6.00 Build 0)  -->
<svg version="1.1" id="Layer_1" xmlns="http://www.w3.org/2000/svg" xmlns:xlink="http://www.w3.org/1999/xlink" x="0px" y="0px"
	 viewBox="0 0 505.3 483.4" style="enable-background:new 0 0 505.3 483.4;" xml:space="preserve">
<style type="text/css">
	.st0{stroke:#000000;stroke-width:8;stroke-linecap:round;stroke-linejoin:round;stroke-miterlimit:10;}
	.st1{stroke:#000000;stroke-width:2;stroke-linecap:round;stroke-linejoin:round;stroke-miterlimit:10;}
	.st2{stroke:#000000;stroke-width:6;stroke-linecap:round;stroke-linejoin:round;stroke-miterlimit:10;}
	.st3{stroke:#000000;stroke-width:8;stroke-linejoin:round;stroke-miterlimit:10;}
	.st4{stroke:#000000;stroke-width:9;stroke-linejoin:round;stroke-miterlimit:10;}
	.st5{stroke:#000000;stroke-width:4;stroke-linejoin:round;stroke-miterlimit:10;}
</style>
<title>Computer User</title>
<path d="M259.5,429c0-2.6-0.3-5.1-0.9-7.6c-0.1-0.5-0.3-0.9-0.4-1.3c-3.3-11.6-12.2-20.7-23.7-24.2l-56.3-18.3
	c-22.8,11.3-49.5,11.3-72.2,0l-56.3,18.3C38.2,399.3,29.3,408.5,26,420c-0.1,0.4-0.4,0.9-0.5,1.3c-0.6,2.5-1,5-1,7.6v33.8h235V429z"
	/>
<path class="st0" d="M112.5,351.8v19.2c19,8.8,41,8.8,59,0v-19.2C152.5,359.3,131.4,359.3,112.5,351.8z"/>
<path class="st1" d="M209.1,292.8c0-0.2,0.1-0.4,0.1-0.6l4-13.7c0.4-2.5,2.4-4.4,4.9-4.9c7.7-1.4,12.8-8.7,11.4-16.3
	c-0.1-0.3-0.1-0.6-0.2-0.9c-0.8-3.4-3.6-6.1-7-6.8c-0.1,0-0.2,0-0.3,0c-2.8,0.1-69.9,4.9-116.8-35.2c-8.6,0.6-15.8,0.7-20.5,0.6
	l-0.4,20.4c-0.4,9.2-8.1,16.3-17.3,15.9c-2.2-0.1-4.3-0.6-6.3-1.5c-3,0.9-5.4,3.4-6.1,6.5c-1.8,7.5,2.8,15.2,10.3,17
	c0.3,0.1,0.6,0.1,0.9,0.2c2.5,0.4,4.4,2.4,4.9,4.9l4,13.7c0.1,0.2,0.1,0.4,0.1,0.6c7,37.1,42.7,61.5,79.8,54.5
	C182.3,342.1,203.9,320.5,209.1,292.8L209.1,292.8z"/>
<path class="st2" d="M146.6,210.5c-8.2,2.3-20.4,2.6-29.1,4.1c34.7,22.3,81.9,28.3,97.9,28.3c-0.5-0.6-0.8-1.2-1-1.9
	C177.2,237.7,153.9,217.7,146.6,210.5z"/>
<path class="st3" d="M141.8,134.8c-40.7,0.1-73.6,33.1-73.5,73.8c0,0,0,0,0,0v36.5c0.6,0,1.1-0.2,1.6-0.5c1.4-0.8,2.4-2.3,2.4-3.9
	l1.3-29c0.1-3.3,2.9-5.9,6.3-5.7c0,0,0,0,0,0c0.7,0,71.5,3.2,111.1-27.1c2.6-2,6.4-1.5,8.4,1.2s1.5,6.4-1.2,8.4l0,0
	c-10.8,8.2-23.5,14.2-36.4,18.6c8.8,7.6,26.5,19.4,53.5,22.6v-20.9C215.4,167.9,182.5,134.9,141.8,134.8
	C141.8,134.8,141.8,134.8,141.8,134.8z"/>
<path class="st4" d="M308.1,83.1c-29.8,0-54,24.2-54,54s24.2,54,54,54s54-24.2,54-54C362.1,107.3,337.9,83.2,308.1,83.1z
	 M339.8,141.9l-37.5,28.1c-1.1,0.8-2.3,1.2-3.7,1.2c-1,0-1.9-0.2-2.8-0.6c-2.1-1-3.5-3.1-3.6-5.4V109c0.1-2.3,1.5-4.4,3.5-5.4
	c2.1-1,4.6-0.8,6.5,0.6l37.5,28.1c2.6,2,3.2,5.7,1.2,8.4C340.7,141.2,340.3,141.6,339.8,141.9L339.8,141.9z"/>
<g>
	<path d="M230.9,277c-0.6,0-1.1-0.3-1.4-0.9c-0.3-0.5-0.2-1.1,0.2-1.6c3.2-4.1,5.1-9.7,5.1-15.4c0-2-0.3-4-0.8-5.9
		c-1.1-4.4-3.4-8.2-6.5-10.8c-0.5-0.4-0.7-1-0.4-1.7c0.2-0.6,0.8-1,1.4-1h259.4c0.8,0,1.5,0.7,1.5,1.5c0,0,0,16.3,0,16.4
		c-0.1,10.6-9,19.3-19.8,19.3L230.9,277z"/>
	<path d="M487.9,239.9c0.8,0,1.4,0.6,1.4,1.4v15.9c0,0.2,0,0.3,0,0.5c-0.1,10.6-8.9,19.2-19.7,19.2c0,0-0.1,0-0.1,0H230.9
		c-1.2,0-1.8-1.3-1.1-2.2c3.2-4.1,5.1-9.7,5.1-15.4c0-2-0.3-4-0.8-6c-1.1-4.3-3.4-8.3-6.5-10.9c-1-0.8-0.4-2.5,0.9-2.5H487.9
		 M487.9,239.7H228.4c-0.7,0-1.3,0.4-1.6,1.1c-0.2,0.7-0.1,1.3,0.5,1.8c3.1,2.6,5.4,6.4,6.5,10.8c0.5,1.9,0.8,3.9,0.8,5.9
		c0,5.7-1.8,11.2-5,15.3c-0.4,0.5-0.5,1.1-0.2,1.7c0.3,0.6,0.9,0.9,1.5,0.9h238.6l0.1,0c10.9,0,19.9-8.7,19.9-19.4
		c0-0.2,0-0.3,0-0.5l0-15.9C489.5,240.4,488.8,239.7,487.9,239.7L487.9,239.7z"/>
</g>
<path d="M469.8,35H146.4c-11-0.1-20,8.6-20.1,19.6c0,0,0,0,0,0v71.2c4.4-0.7,8.9-1,13.4-1.1c47.3,0.1,85.7,38.5,85.6,85.8V236h264
	V54.6C489.5,44,481,35.2,470.3,35C470.2,35,470,35,469.8,35z M308.1,203.1c-36.5,0-66-29.5-66-66s29.5-66,66-66s66,29.5,66,66l0,0
	C374.1,173.6,344.5,203.1,308.1,203.1z"/>
<polygon class="st5" points="304.3,153.3 325.8,137.1 304.3,121 "/>
<path d="M265.9,280.8v63H236c-3.3,0-6,2.7-6,6s2.7,6,6,6h158.1c3.3,0,6-2.7,6-6s-2.7-6-6-6h-41.2v-63H265.9z"/>
</svg>
