<?xml version="1.0" encoding="utf-8"?>
<!-- Generator: Adobe Illustrator 24.0.3, SVG Export Plug-In . SVG Version: 6.00 Build 0)  -->
<svg version="1.1" id="Layer_1" xmlns="http://www.w3.org/2000/svg" xmlns:xlink="http://www.w3.org/1999/xlink" x="0px" y="0px"
	 viewBox="0 0 24.9 19.3" style="enable-background:new 0 0 24.9 19.3;" xml:space="preserve">
<path d="M23.2,13.2C23.2,13.2,23.2,13.2,23.2,13.2c-0.3-0.3-0.7-0.5-1.1-0.6c-0.1,0-0.5-0.5-0.6-0.7c-0.7-1.2-1.4-1.9-1.7-2.2
	c-0.4-0.4-1.2-1.4-1.7-2.4c-0.5-1.1-1.3-1.8-1.7-2.1C16,5,15.4,5.1,15,5.3c0,0,0,0,0,0c-0.2,0.1-0.2,0.1-0.3,0.1c0,0-0.1,0-0.1,0
	c-0.1,0.1-0.7,0.1-0.8,0.1c-0.1,0-0.2-0.2-0.2-0.3c0,0,0.1-0.1,0.1-0.1c0,0,0.1-0.1,0.1-0.1c0.2-0.1,0.3-0.2,0.4-0.3
	c0-0.2-0.1-0.3-0.2-0.4c0,0,0,0,0,0c0,0,0,0,0-0.1c0-0.1,0-0.1,0-0.2c0-0.1-0.1-0.2-0.1-0.3c0,0,0,0,0,0c0-0.1,0-0.2,0-0.2
	c0-0.1-0.1-0.2-0.3-0.2c-0.1,0-0.2,0-0.2,0l0,0c0-0.2-0.2-0.4-0.6-0.6c-0.2-0.1-0.4-0.1-0.7-0.1c-0.1-0.1-0.2-0.1-0.3,0
	c0,0-0.7,0.2-0.8,0.4c-0.5,0.2-0.8,0.8-0.8,1C9.9,4,10,4.6,10.2,4.8c-0.1,0.1,0,0.3,0.1,0.3c0,0.1,0.1,0.3,0.3,0.3
	c0.1,0.2,0.3,0.4,0.3,0.4s-0.1,0.4,0,0.5c0.1,0.1,0.3,0.3,0.4,0.4c0.7,0,0.6-0.4,0.7-0.4c0.1,0,0.1,0,0.2,0c0,0,0.1,0.1,0.1,0.1
	c0.2,0.4-0.1,0.8-0.5,1.1c-0.1,0.1-0.1,0.1-0.2,0.1c-0.1,0.1-0.3,0.2-0.5,0.3c-0.4,0.3-0.9,0.6-1.2,1c-0.5,0.7-1.6,1.4-2.2,1.6
	c-0.5,0.1-0.8,0.2-1.2,0.3L6.1,11c-0.2,0.1-0.6,0.2-1,0.3c-0.5,0.2-1,0.3-1.1,0.4c-0.2,0-1,0.1-1.1,0.1c-0.1,0-0.6,0-1,0h0
	c0,0,0,0,0,0c-0.1-0.1-0.1-0.2-0.2-0.3c0,0,0,0,0,0c-0.1,0-0.1,0-0.1,0c-0.1,0.1-0.1,0.2-0.1,0.3c-0.1,0-0.1,0-0.2,0
	c-0.1,0-0.2,0.1-0.2,0.2c0,0.1,0,0.2,0,0.3c-0.1,0.1-0.1,0.2,0,0.3c0,0,0,0.1-0.1,0.1c-0.2,0.3-0.3,0.6-0.3,1.5
	c0,0.5-0.1,0.6-0.1,0.8c-0.1,0.1-0.1,0.2-0.1,0.4c0,0.4,0.1,0.6,0.2,0.8c0.1,0.1,0.3,0.1,0.4,0.1c0.1,0,0.3,0,0.4-0.1
	C1.7,16,2.3,16,2.3,16c0,0,0.1,0,0.3,0c0.4,0,1.3-0.1,1.9,0c2.1,0.2,2.9-0.1,3.2-0.2c0,0,0,0,0,0c0.1,0.1,0.2,0,0.3-0.1
	c0.1,0,0.2-0.1,0.4-0.1c0.1,0,0.2-0.1,0.3-0.1c0,0,0,0,0.1,0c0.1,0,1,0.1,1.6,0.1c0.6,0,2.2,0,2.9-0.1c0,0,0,0,0,0
	c0.1,0.1,0.2,0.1,0.3,0.1c0.1,0.1,0.6,0,0.6,0l0,0c0.1,0,0.4-0.1,0.9,0c0.3,0.1,0.6,0.1,0.8,0c0.2,0,0.3,0,0.4,0
	c0.2,0.1,0.5,0.1,1,0.1c0.2,0,0.5,0,0.9,0c1,0.1,2.6,0.1,2.6,0.1c0,0,0,0,0,0c0,0,0.1,0,0.1,0c0.3,0,0.7,0.1,1.2,0
	c0.8-0.1,1-0.9,1.2-1.1c0.1-0.2,0.1-0.4,0.1-0.6c0,0,0.1-0.1,0.1-0.1c0.1,0,0.1,0,0.1-0.1C23.7,14,23.8,13.9,23.2,13.2z M12.4,6.2
	c-0.1-0.1-0.1-0.2-0.2-0.2c-0.1-0.2-0.3-0.6-0.5-0.6c-0.2,0-0.3-0.2-0.5-0.4c-0.3-0.3,0-0.4,0.1-0.4c0.1,0,0.2,0,0.4-0.1
	c0.2,0,0-0.2-0.1-0.5c-0.1-0.2,0-0.4,0.1-0.6c0.1-0.2,0-0.3-0.2-0.4c0.1,0,0.2-0.4,0.2-0.4c0.2,0,0.6-0.1,0.8,0.1
	C13,3,13.1,3.2,13.1,3.2c0,0,0,0,0,0.1l0,0c0,0,0,0,0,0c0,0,0.1,0.1,0.4,0.1c0,0,0.1,0,0.1,0c0,0,0,0.1,0,0.1c0,0,0,0,0,0.1
	c0,0,0,0.1,0,0.1c0,0,0,0.1,0.1,0.1c0,0,0.1,0.1,0.1,0.1v0c0,0,0,0.1,0,0.1c0,0,0,0.1,0,0.2c0,0.1,0,0.1,0.1,0.2c0,0,0,0,0,0
	c0.1,0,0.2,0.1,0.1,0.2c0,0.1-0.1,0.1-0.2,0.2c-0.1,0-0.1,0.1-0.2,0.2c0,0-0.1,0.1-0.1,0.1c0,0-0.1,0-0.1,0s0,0.1,0,0.1
	c0,0.1,0.2,0.5,0.3,0.5c0.1,0.1,0.6,0,0.9-0.1c0.1,0.3,0.3,1,0.4,1.9c0,0.4,0.1,1.2-0.5,1.2c-0.6,0-1-0.3-1.4-0.8
	c-0.3-0.3-0.8-0.7-0.9-0.8C12.4,7,12.6,6.6,12.4,6.2z M7.6,15.6c-0.3,0.1-1.1,0.4-3.1,0.2c-0.6-0.1-1.4,0-1.9,0c-0.1,0-0.2,0-0.3,0
	c0,0-0.7,0-1,0.1C1,16,0.8,16,0.7,15.9c-0.1-0.1-0.2-0.3-0.2-0.6c0-0.2,0-0.2,0.1-0.3c0.1-0.1,0.2-0.3,0.2-0.9c0-0.9,0-1.2,0.2-1.4
	c0.2-0.1,0.2-0.3,0.2-0.3c0,0,0,0,0,0c0,0,0-0.1,0-0.2c0,0,0-0.1,0-0.1c0,0,0-0.1,0-0.1c0,0,0,0,0,0c0,0,0,0,0,0c0,0,0.1,0,0.1,0
	c0,0,0,0.1,0,0.1s0.1,0,0.1,0l0.1,0c0,0,0.1-0.1,0.1-0.1c0-0.1,0-0.2,0-0.2c0,0,0.1,0.1,0.1,0.2c0.1,0.1,0.1,0.1,0.2,0.1h0.1
	c0.6,0,0.9,0,0.9,0c0.1,0,0.9,0,1.2-0.1c0.1,0,0.6-0.2,1.1-0.4c0.4-0.1,0.8-0.3,1-0.3l0.3-0.1c0.4-0.1,0.7-0.2,1.2-0.4
	C8.3,10.5,9.4,9.8,10,9c0.3-0.4,0.8-0.7,1.2-0.9c0.2-0.2,0.4-0.3,0.5-0.4c0.2,0.2,0.5,0.5,0.6,0.9c0.1,0.5,0.4,0.8,0.3,1
	c-0.1,0-0.1-0.1-0.2-0.1c-0.9-0.3-1.1-0.1-1.5,0.3L10.8,10c-0.4,0.4-1.3,0.9-1.8,1.1l-0.2,0.1c-0.1,0.1-0.2,0.1-0.3,0.2
	c-0.4,0.2-0.8,0.4-1.1,0.6c-0.9,0.3-2,0.5-2.8,0.6c-0.2,0-0.5,0.1-0.6,0.1c-0.4,0.1-0.7,0.1-0.9,0.2c-0.3,0.1-0.5,0.1-0.8,0.2
	c-0.3,0-0.3,0-0.4-0.1c0,0,0-0.1,0-0.1c0,0,0-0.1-0.1-0.1c0,0-0.1,0-0.1,0c-0.1,0.1-0.1,0.3,0,0.5c0,0.1,0.1,0.2,0.1,0.3
	c0.1,0.2,0.1,0.2,0.1,0.3c0,0.1,0,0.2,0.2,0.5c0.2,0.3,0.7,0.4,1,0.4c0.2,0,0.4,0,0.4,0c0.8-0.1,3.2-0.3,3.6-0.4
	C7.3,14.6,7.5,15.3,7.6,15.6C7.6,15.6,7.6,15.6,7.6,15.6z M11.8,13.2c-0.2,0-0.4-0.1-0.8-0.1s-0.5,0.2-1,0.2c-0.7,0-0.9,0.2-1.2,0.3
	c-0.2,0-0.7,0.2-0.7,0.2c0,0.1-0.2,0-0.3,0c-0.1,0-0.2,0-0.3,0.2c-0.1,0-0.6,0-0.7,0.1c0,0,0,0,0,0c-0.6,0.1-2.8,0.3-3.5,0.4
	c-0.3,0-1,0.1-1.2-0.2c-0.2-0.2-0.2-0.3-0.2-0.4c0-0.1,0-0.2-0.1-0.4c0-0.1-0.1-0.2-0.1-0.3c0-0.1-0.1-0.2-0.1-0.2
	c0.1,0.1,0.2,0.2,0.6,0.2c0.3,0,0.5-0.1,0.8-0.2c0.3-0.1,0.5-0.1,0.9-0.2c0.2,0,0.4-0.1,0.6-0.1c0.8-0.1,2-0.2,2.9-0.6
	c0.3-0.1,0.8-0.4,1.2-0.6c0.1-0.1,0.2-0.1,0.3-0.2l0.2-0.1c0.5-0.3,1.4-0.7,1.9-1.2l0.1-0.1c0.4-0.4,0.5-0.5,1.3-0.3
	c0.2,0.1,0.5,0.2,0.8,0.3c0.1,0.1,0.3,0.2,0.4,0.3c0.2,0.2,0.4,0.3,0.5,0.5c0.1,0.1,0.3,0.1,0.4,0.3c0.1,0.2,0.3,0.3,0.4,0.4
	c0,0.1,0.1,0.2,0,0.2c0,0,0,0.4-0.1,0.5c0,0-0.2,0.2-0.1,0.4c0,0-0.6,0-1.1,0.1C13,13,12,13.2,11.8,13.2z M18.3,15.7
	c-0.4,0-0.6,0-0.9,0c-0.4,0-0.7,0-0.9-0.1c-0.1-0.1-0.3,0-0.5,0c-0.2,0-0.4,0-0.7,0c-0.6-0.1-0.8,0-1,0l0,0c-0.1,0-0.4,0-0.5,0
	c0,0,0,0,0,0c0,0-0.1,0-0.1,0c0,0-0.1,0-0.1,0c0,0-0.1-0.1,0-0.1c0.1-0.2,0.3-0.3,0.4-0.3c0.1,0,0.2-0.1,0.2-0.2c0,0,0,0,0,0
	c0.1,0,0.1,0,0.2,0c0.4,0.1,1.5,0.1,2,0.1c0.5,0,1-0.3,1.2-0.3c0.2,0,0.6-0.1,0.8-0.1c0.3-0.3,1-0.5,1.1-0.5s0.4-0.1,0.4,0
	c-0.1,0.1-0.1,0.5-0.2,0.8c0,0.3,0.3,0.8,0.6,1C19.8,15.7,18.9,15.7,18.3,15.7z M19.7,13.2c0-0.1-0.1-0.4-0.1-0.4
	c0,0-0.1-0.3-0.1-0.4c0-0.2-0.1-0.3-0.2-0.4c-0.1-0.1-0.4-0.8-0.5-0.9c0-0.1-0.2-0.3-0.3-0.4c-0.1-0.1-0.5-0.8-0.7-1.2
	c0.2,0.3,0.5,0.6,0.7,0.8c0.1,0.1,0.3,0.3,0.4,0.5c0.4,0.4,1,1,1.1,1.1c0.3,0.3,0.9,0.8,0.9,1c0,0.1,0.1,0.2,0.1,0.2
	C20.9,13.1,19.9,13.2,19.7,13.2z M23.4,14.1C23.4,14.1,23.3,14,23.4,14.1c-0.1-0.1-0.2-0.3-0.3-0.3c-0.1,0.1-0.2-0.1-0.3-0.2
	c0,0-0.2-0.1-0.3-0.2c-0.1-0.1-0.4-0.1-0.4-0.1l-0.2-0.1l0,0.1c0,0,0,0.2-0.1,0.2c-0.1,0.1-0.2,0-0.3-0.1c0,0-0.1-0.1-0.1-0.1
	c0-0.1,0-0.1-0.1-0.2c-0.1-0.1-0.2-0.3-0.2-0.3c0-0.2-0.8-0.9-1-1.1c-0.2-0.2-0.7-0.7-1.1-1.1c-0.2-0.2-0.3-0.3-0.4-0.5
	c-0.3-0.3-0.9-1-1.1-1.3c-0.2-0.3-0.7-1.3-1-1.7c-0.2,0-0.6-0.2-0.8-0.5c-0.2-0.3-0.5-1-0.6-1.4c0.4-0.1,0.8-0.2,1-0.1
	c0.4,0.3,1.1,0.9,1.6,2c0.5,1.1,1.3,2.1,1.7,2.5c0.3,0.3,1,1,1.7,2.2c0.4,0.6,0.6,0.8,0.7,0.8c0,0,0,0,0,0c0.4,0.1,0.7,0.3,1,0.6
	c0.3,0.3,0.4,0.6,0.4,0.6C23.5,14,23.4,14,23.4,14.1z"/>
</svg>
